NotoSansMahajani-Regular.ufo
<glyph name="uni0964" format="2">
  <advance width="237"/>
  <unicode hex="0964"/>
  <outline>
    <contour>
      <point x="78" y="0" type="line"/>
      <point x="159" y="0" type="line"/>
      <point x="159" y="622" type="line"/>
      <point x="78" y="622" type="line"/>
    </contour>
  </outline>
</glyph>
<glyph name="uni0965" format="2">
  <advance width="457"/>
  <unicode hex="0965"/>
  <outline>
    <contour>
      <point x="298" y="0" type="line"/>
      <point x="379" y="0" type="line"/>
      <point x="379" y="622" type="line"/>
      <point x="298" y="622" type="line"/>
    </contour>
    <contour>
      <point x="78" y="0" type="line"/>
      <point x="159" y="0" type="line"/>
      <point x="159" y="622" type="line"/>
      <point x="78" y="622" type="line"/>
    </contour>
  </outline>
</glyph>
<glyph name="uni0966" format="2">
  <advance width="551"/>
  <unicode hex="0966"/>
  <outline>
    <contour>
      <point x="269" y="91" type="curve" smooth="yes"/>
      <point x="381" y="91"/>
      <point x="463" y="171"/>
      <point x="463" y="285" type="curve" smooth="yes"/>
      <point x="463" y="400"/>
      <point x="379" y="482"/>
      <point x="268" y="482" type="curve" smooth="yes"/>
      <point x="156" y="482"/>
      <point x="75" y="402"/>
      <point x="75" y="287" type="curve" smooth="yes"/>
      <point x="75" y="171"/>
      <point x="156" y="91"/>
    </contour>
    <contour>
      <point x="268" y="164" type="curve" smooth="yes"/>
      <point x="200" y="164"/>
      <point x="157" y="213"/>
      <point x="157" y="284" type="curve" smooth="yes"/>
      <point x="157" y="356"/>
      <point x="204" y="407"/>
      <point x="270" y="407" type="curve" smooth="yes"/>
      <point x="337" y="407"/>
      <point x="381" y="358"/>
      <point x="381" y="287" type="curve" smooth="yes"/>
      <point x="381" y="216"/>
      <point x="333" y="164"/>
    </contour>
  </outline>
</glyph>
<glyph name="uni0967" format="2">
  <advance width="551"/>
  <unicode hex="0967"/>
  <outline>
    <contour>
      <point x="333" y="-78" type="curve" smooth="yes"/>
      <point x="345" y="-78"/>
      <point x="359" y="-72"/>
      <point x="370" y="-54" type="curve" smooth="yes"/>
      <point x="392" y="-20"/>
      <point x="399" y="5"/>
      <point x="399" y="33" type="curve" smooth="yes"/>
      <point x="399" y="82"/>
      <point x="380" y="120"/>
      <point x="332" y="156" type="curve" smooth="yes"/>
      <point x="250" y="218" type="line"/>
      <point x="395" y="323"/>
      <point x="423" y="368"/>
      <point x="423" y="447" type="curve" smooth="yes"/>
      <point x="423" y="523"/>
      <point x="366" y="580"/>
      <point x="270" y="580" type="curve" smooth="yes"/>
      <point x="182" y="580"/>
      <point x="127" y="526"/>
      <point x="127" y="465" type="curve" smooth="yes"/>
      <point x="127" y="417"/>
      <point x="147" y="379"/>
      <point x="212" y="346" type="curve" smooth="yes"/>
      <point x="217" y="343"/>
      <point x="222" y="342"/>
      <point x="225" y="342" type="curve" smooth="yes"/>
      <point x="243" y="342"/>
      <point x="265" y="358"/>
      <point x="265" y="378" type="curve" smooth="yes"/>
      <point x="265" y="392"/>
      <point x="259" y="395"/>
      <point x="241" y="404" type="curve" smooth="yes"/>
      <point x="214" y="418"/>
      <point x="200" y="436"/>
      <point x="200" y="461" type="curve" smooth="yes"/>
      <point x="200" y="490"/>
      <point x="223" y="516"/>
      <point x="268" y="516" type="curve" smooth="yes"/>
      <point x="312" y="516"/>
      <point x="342" y="489"/>
      <point x="342" y="446" type="curve" smooth="yes"/>
      <point x="342" y="377"/>
      <point x="291" y="335"/>
      <point x="141" y="238" type="curve"/>
      <point x="137" y="216" type="line"/>
      <point x="276" y="102" type="line" smooth="yes"/>
      <point x="308" y="75"/>
      <point x="316" y="60"/>
      <point x="316" y="33" type="curve" smooth="yes"/>
      <point x="316" y="10"/>
      <point x="309" y="-12"/>
      <point x="293" y="-30" type="curve"/>
      <point x="292" y="-32"/>
      <point x="291" y="-35"/>
      <point x="291" y="-38" type="curve" smooth="yes"/>
      <point x="291" y="-57"/>
      <point x="309" y="-78"/>
    </contour>
  </outline>
</glyph>
<glyph name="uni0968" format="2">
  <advance width="551"/>
  <unicode hex="0968"/>
  <outline>
    <contour>
      <point x="423" y="-16" type="curve" smooth="yes"/>
      <point x="448" y="-16"/>
      <point x="464" y="0"/>
      <point x="464" y="19" type="curve" smooth="yes"/>
      <point x="464" y="27"/>
      <point x="462" y="35"/>
      <point x="456" y="43" type="curve" smooth="yes"/>
      <point x="408" y="111"/>
      <point x="371" y="153"/>
      <point x="321" y="203" type="curve"/>
      <point x="402" y="244"/>
      <point x="449" y="302"/>
      <point x="449" y="388" type="curve" smooth="yes"/>
      <point x="449" y="516"/>
      <point x="363" y="580"/>
      <point x="249" y="580" type="curve" smooth="yes"/>
      <point x="198" y="580"/>
      <point x="148" y="573"/>
      <point x="103" y="545" type="curve" smooth="yes"/>
      <point x="90" y="537"/>
      <point x="87" y="529"/>
      <point x="87" y="519" type="curve" smooth="yes"/>
      <point x="87" y="498"/>
      <point x="102" y="482"/>
      <point x="119" y="482" type="curve" smooth="yes"/>
      <point x="122" y="482"/>
      <point x="126" y="483"/>
      <point x="129" y="484" type="curve" smooth="yes"/>
      <point x="175" y="505"/>
      <point x="208" y="509"/>
      <point x="249" y="509" type="curve" smooth="yes"/>
      <point x="319" y="509"/>
      <point x="366" y="467"/>
      <point x="366" y="390" type="curve" smooth="yes"/>
      <point x="366" y="329"/>
      <point x="325" y="284"/>
      <point x="262" y="261" type="curve"/>
      <point x="226" y="288"/>
      <point x="202" y="299"/>
      <point x="174" y="299" type="curve" smooth="yes"/>
      <point x="135" y="299"/>
      <point x="110" y="276"/>
      <point x="110" y="240" type="curve" smooth="yes"/>
      <point x="110" y="200"/>
      <point x="147" y="174"/>
      <point x="193" y="174" type="curve" smooth="yes"/>
      <point x="210" y="174"/>
      <point x="228" y="175"/>
      <point x="245" y="178" type="curve"/>
      <point x="293" y="132"/>
      <point x="333" y="88"/>
      <point x="389" y="2" type="curve" smooth="yes"/>
      <point x="398" y="-12"/>
      <point x="412" y="-16"/>
    </contour>
  </outline>
</glyph>
<glyph name="uni0969" format="2">
  <advance width="551"/>
  <unicode hex="0969"/>
  <outline>
    <contour>
      <point x="386" y="-58" type="curve" smooth="yes"/>
      <point x="407" y="-58"/>
      <point x="429" y="-42"/>
      <point x="429" y="-20" type="curve" smooth="yes"/>
      <point x="429" y="-16"/>
      <point x="428" y="-11"/>
      <point x="426" y="-8" type="curve" smooth="yes"/>
      <point x="393" y="34"/>
      <point x="365" y="67"/>
      <point x="333" y="99" type="curve"/>
      <point x="412" y="128"/>
      <point x="454" y="182"/>
      <point x="454" y="236" type="curve" smooth="yes"/>
      <point x="454" y="296"/>
      <point x="422" y="331"/>
      <point x="362" y="355" type="curve"/>
      <point x="403" y="383"/>
      <point x="421" y="405"/>
      <point x="421" y="456" type="curve" smooth="yes"/>
      <point x="421" y="528"/>
      <point x="357" y="580"/>
      <point x="252" y="580" type="curve" smooth="yes"/>
      <point x="201" y="580"/>
      <point x="148" y="568"/>
      <point x="114" y="548" type="curve" smooth="yes"/>
      <point x="103" y="541"/>
      <point x="97" y="530"/>
      <point x="97" y="519" type="curve" smooth="yes"/>
      <point x="97" y="502"/>
      <point x="109" y="486"/>
      <point x="130" y="486" type="curve" smooth="yes"/>
      <point x="137" y="486"/>
      <point x="144" y="489"/>
      <point x="151" y="492" type="curve" smooth="yes"/>
      <point x="186" y="504"/>
      <point x="220" y="510"/>
      <point x="256" y="510" type="curve" smooth="yes"/>
      <point x="311" y="510"/>
      <point x="342" y="481"/>
      <point x="342" y="453" type="curve" smooth="yes"/>
      <point x="342" y="407"/>
      <point x="311" y="383"/>
      <point x="204" y="382" type="curve"/>
      <point x="189" y="378"/>
      <point x="182" y="363"/>
      <point x="182" y="348" type="curve" smooth="yes"/>
      <point x="182" y="329"/>
      <point x="192" y="311"/>
      <point x="207" y="311" type="curve" smooth="yes"/>
      <point x="228" y="311"/>
      <point x="249" y="314"/>
      <point x="267" y="317" type="curve"/>
      <point x="333" y="313"/>
      <point x="371" y="286"/>
      <point x="371" y="239" type="curve" smooth="yes"/>
      <point x="371" y="199"/>
      <point x="342" y="171"/>
      <point x="278" y="158" type="curve"/>
      <point x="246" y="187"/>
      <point x="216" y="204"/>
      <point x="179" y="204" type="curve" smooth="yes"/>
      <point x="140" y="204"/>
      <point x="115" y="181"/>
      <point x="115" y="144" type="curve" smooth="yes"/>
      <point x="115" y="105"/>
      <point x="151" y="79"/>
      <point x="197" y="79" type="curve" smooth="yes"/>
      <point x="221" y="79"/>
      <point x="241" y="80"/>
      <point x="257" y="82" type="curve"/>
      <point x="270" y="69"/>
      <point x="284" y="53"/>
      <point x="301" y="32" type="curve" smooth="yes"/>
      <point x="316" y="14"/>
      <point x="340" y="-17"/>
      <point x="364" y="-48" type="curve" smooth="yes"/>
      <point x="369" y="-55"/>
      <point x="378" y="-58"/>
    </contour>
  </outline>
</glyph>
<glyph name="uni096A" format="2">
  <advance width="551"/>
  <unicode hex="096A"/>
  <outline>
    <contour>
      <point x="273" y="-10" type="curve" smooth="yes"/>
      <point x="366" y="-10"/>
      <point x="421" y="35"/>
      <point x="421" y="111" type="curve" smooth="yes"/>
      <point x="421" y="181"/>
      <point x="374" y="236"/>
      <point x="331" y="282" type="curve" smooth="yes"/>
      <point x="325" y="288" type="line"/>
      <point x="359" y="323" type="line" smooth="yes"/>
      <point x="455" y="423"/>
      <point x="470" y="452"/>
      <point x="471" y="496" type="curve" smooth="yes"/>
      <point x="471" y="512"/>
      <point x="470" y="543"/>
      <point x="464" y="561" type="curve" smooth="yes"/>
      <point x="459" y="576"/>
      <point x="441" y="583"/>
      <point x="427" y="583" type="curve" smooth="yes"/>
      <point x="405" y="583"/>
      <point x="388" y="565"/>
      <point x="388" y="549" type="curve" smooth="yes"/>
      <point x="388" y="541"/>
      <point x="391" y="528"/>
      <point x="391" y="515" type="curve" smooth="yes"/>
      <point x="391" y="452"/>
      <point x="331" y="402"/>
      <point x="286" y="353" type="curve" smooth="yes"/>
      <point x="275" y="341" type="line"/>
      <point x="264" y="354" type="line" smooth="yes"/>
      <point x="256" y="363"/>
      <point x="231" y="390"/>
      <point x="214" y="408" type="curve" smooth="yes"/>
      <point x="183" y="442"/>
      <point x="160" y="474"/>
      <point x="160" y="515" type="curve" smooth="yes"/>
      <point x="160" y="528"/>
      <point x="163" y="541"/>
      <point x="163" y="549" type="curve" smooth="yes"/>
      <point x="163" y="565"/>
      <point x="146" y="583"/>
      <point x="124" y="583" type="curve" smooth="yes"/>
      <point x="110" y="583"/>
      <point x="92" y="576"/>
      <point x="87" y="561" type="curve" smooth="yes"/>
      <point x="81" y="543"/>
      <point x="80" y="512"/>
      <point x="80" y="496" type="curve" smooth="yes"/>
      <point x="81" y="452"/>
      <point x="96" y="423"/>
      <point x="192" y="323" type="curve" smooth="yes"/>
      <point x="225" y="288" type="line"/>
      <point x="220" y="282" type="line" smooth="yes"/>
      <point x="177" y="236"/>
      <point x="130" y="181"/>
      <point x="130" y="111" type="curve" smooth="yes"/>
      <point x="130" y="34"/>
      <point x="185" y="-10"/>
    </contour>
    <contour>
      <point x="274" y="59" type="curve" smooth="yes"/>
      <point x="228" y="59"/>
      <point x="210" y="78"/>
      <point x="210" y="118" type="curve" smooth="yes"/>
      <point x="210" y="148"/>
      <point x="236" y="195"/>
      <point x="275" y="236" type="curve"/>
      <point x="315" y="195"/>
      <point x="341" y="148"/>
      <point x="341" y="118" type="curve" smooth="yes"/>
      <point x="341" y="77"/>
      <point x="322" y="59"/>
    </contour>
  </outline>
</glyph>
<glyph name="uni096B" format="2">
  <advance width="551"/>
  <unicode hex="096B"/>
  <outline>
    <contour>
      <point x="441" y="-25" type="curve" smooth="yes"/>
      <point x="459" y="-25"/>
      <point x="483" y="-13"/>
      <point x="483" y="9" type="curve" smooth="yes"/>
      <point x="483" y="14"/>
      <point x="482" y="19"/>
      <point x="478" y="25" type="curve" smooth="yes"/>
      <point x="438" y="89"/>
      <point x="416" y="127"/>
      <point x="387" y="200" type="curve"/>
      <point x="426" y="213"/>
      <point x="444" y="241"/>
      <point x="444" y="277" type="curve" smooth="yes"/>
      <point x="444" y="317"/>
      <point x="414" y="356"/>
      <point x="360" y="356" type="curve" smooth="yes"/>
      <point x="317" y="356"/>
      <point x="289" y="332"/>
      <point x="289" y="292" type="curve" smooth="yes"/>
      <point x="289" y="283"/>
      <point x="291" y="269"/>
      <point x="295" y="257" type="curve"/>
      <point x="284" y="255"/>
      <point x="280" y="255"/>
      <point x="277" y="255" type="curve" smooth="yes"/>
      <point x="178" y="255"/>
      <point x="147" y="310"/>
      <point x="147" y="396" type="curve" smooth="yes"/>
      <point x="147" y="449"/>
      <point x="153" y="482"/>
      <point x="181" y="537" type="curve" smooth="yes"/>
      <point x="183" y="542"/>
      <point x="184" y="549"/>
      <point x="184" y="553" type="curve" smooth="yes"/>
      <point x="184" y="578"/>
      <point x="161" y="595"/>
      <point x="139" y="595" type="curve" smooth="yes"/>
      <point x="127" y="595"/>
      <point x="115" y="590"/>
      <point x="110" y="580" type="curve" smooth="yes"/>
      <point x="85" y="533"/>
      <point x="67" y="468"/>
      <point x="67" y="407" type="curve" smooth="yes"/>
      <point x="67" y="259"/>
      <point x="138" y="186"/>
      <point x="281" y="186" type="curve" smooth="yes"/>
      <point x="296" y="186"/>
      <point x="308" y="186"/>
      <point x="317" y="187" type="curve"/>
      <point x="333" y="146"/>
      <point x="349" y="113"/>
      <point x="368" y="77" type="curve" smooth="yes"/>
      <point x="381" y="52"/>
      <point x="394" y="25"/>
      <point x="406" y="-2" type="curve" smooth="yes"/>
      <point x="413" y="-18"/>
      <point x="426" y="-25"/>
    </contour>
  </outline>
</glyph>
<glyph name="uni096C" format="2">
  <advance width="551"/>
  <unicode hex="096C"/>
  <outline>
    <contour>
      <point x="437" y="-46" type="curve" smooth="yes"/>
      <point x="455" y="-46"/>
      <point x="481" y="-35"/>
      <point x="481" y="-10" type="curve" smooth="yes"/>
      <point x="481" y="-7"/>
      <point x="481" y="-4"/>
      <point x="480" y="-1" type="curve"/>
      <point x="448" y="45"/>
      <point x="433" y="71"/>
      <point x="418" y="109" type="curve"/>
      <point x="453" y="120"/>
      <point x="467" y="150"/>
      <point x="467" y="185" type="curve" smooth="yes"/>
      <point x="467" y="221"/>
      <point x="443" y="258"/>
      <point x="387" y="258" type="curve" smooth="yes"/>
      <point x="350" y="258"/>
      <point x="319" y="236"/>
      <point x="319" y="198" type="curve" smooth="yes"/>
      <point x="319" y="191"/>
      <point x="320" y="176"/>
      <point x="324" y="164" type="curve"/>
      <point x="315" y="163"/>
      <point x="306" y="163"/>
      <point x="299" y="163" type="curve" smooth="yes"/>
      <point x="232" y="163"/>
      <point x="179" y="183"/>
      <point x="179" y="245" type="curve" smooth="yes"/>
      <point x="179" y="300"/>
      <point x="222" y="323"/>
      <point x="289" y="323" type="curve" smooth="yes"/>
      <point x="303" y="323"/>
      <point x="315" y="322"/>
      <point x="325" y="322" type="curve" smooth="yes"/>
      <point x="348" y="322"/>
      <point x="356" y="339"/>
      <point x="356" y="355" type="curve" smooth="yes"/>
      <point x="356" y="371"/>
      <point x="350" y="383"/>
      <point x="337" y="387" type="curve" smooth="yes"/>
      <point x="325" y="391"/>
      <point x="307" y="392"/>
      <point x="298" y="392" type="curve" smooth="yes"/>
      <point x="270" y="392"/>
      <point x="246" y="389"/>
      <point x="221" y="384" type="curve"/>
      <point x="174" y="397"/>
      <point x="151" y="418"/>
      <point x="151" y="446" type="curve" smooth="yes"/>
      <point x="151" y="493"/>
      <point x="187" y="512"/>
      <point x="259" y="512" type="curve" smooth="yes"/>
      <point x="290" y="512"/>
      <point x="313" y="508"/>
      <point x="331" y="508" type="curve" smooth="yes"/>
      <point x="342" y="508"/>
      <point x="359" y="520"/>
      <point x="359" y="540" type="curve" smooth="yes"/>
      <point x="359" y="552"/>
      <point x="351" y="569"/>
      <point x="338" y="573" type="curve" smooth="yes"/>
      <point x="316" y="580"/>
      <point x="287" y="581"/>
      <point x="255" y="581" type="curve" smooth="yes"/>
      <point x="149" y="581"/>
      <point x="70" y="540"/>
      <point x="70" y="455" type="curve" smooth="yes"/>
      <point x="70" y="400"/>
      <point x="95" y="371"/>
      <point x="147" y="342" type="curve"/>
      <point x="115" y="317"/>
      <point x="99" y="289"/>
      <point x="99" y="249" type="curve" smooth="yes"/>
      <point x="99" y="159"/>
      <point x="171" y="93"/>
      <point x="302" y="93" type="curve" smooth="yes"/>
      <point x="317" y="93"/>
      <point x="333" y="94"/>
      <point x="350" y="96" type="curve"/>
      <point x="367" y="55"/>
      <point x="388" y="12"/>
      <point x="416" y="-35" type="curve" smooth="yes"/>
      <point x="420" y="-42"/>
      <point x="427" y="-46"/>
    </contour>
  </outline>
</glyph>
<glyph name="uni096D" format="2">
  <advance width="551"/>
  <unicode hex="096D"/>
  <outline>
    <contour>
      <point x="334" y="39" type="curve" smooth="yes"/>
      <point x="440" y="39"/>
      <point x="512" y="106"/>
      <point x="512" y="260" type="curve" smooth="yes"/>
      <point x="512" y="412"/>
      <point x="443" y="524"/>
      <point x="321" y="524" type="curve" smooth="yes"/>
      <point x="245" y="524"/>
      <point x="197" y="482"/>
      <point x="197" y="409" type="curve" smooth="yes"/>
      <point x="197" y="370"/>
      <point x="210" y="344"/>
      <point x="233" y="319" type="curve" smooth="yes"/>
      <point x="265" y="283"/>
      <point x="337" y="267"/>
      <point x="359" y="267" type="curve" smooth="yes"/>
      <point x="382" y="267"/>
      <point x="396" y="288"/>
      <point x="396" y="305" type="curve" smooth="yes"/>
      <point x="396" y="318"/>
      <point x="383" y="333"/>
      <point x="369" y="334" type="curve" smooth="yes"/>
      <point x="312" y="340"/>
      <point x="269" y="364"/>
      <point x="269" y="408" type="curve" smooth="yes"/>
      <point x="269" y="439"/>
      <point x="290" y="460"/>
      <point x="322" y="460" type="curve" smooth="yes"/>
      <point x="383" y="460"/>
      <point x="432" y="376"/>
      <point x="432" y="265" type="curve" smooth="yes"/>
      <point x="432" y="166"/>
      <point x="409" y="113"/>
      <point x="330" y="113" type="curve" smooth="yes"/>
      <point x="279" y="113"/>
      <point x="236" y="136"/>
      <point x="197" y="200" type="curve" smooth="yes"/>
      <point x="158" y="263"/>
      <point x="129" y="395"/>
      <point x="114" y="559" type="curve" smooth="yes"/>
      <point x="113" y="573"/>
      <point x="95" y="582"/>
      <point x="80" y="582" type="curve" smooth="yes"/>
      <point x="58" y="582"/>
      <point x="40" y="574"/>
      <point x="40" y="547" type="curve" smooth="yes"/>
      <point x="40" y="530"/>
      <point x="51" y="456"/>
      <point x="57" y="418" type="curve" smooth="yes"/>
      <point x="103" y="134"/>
      <point x="182" y="39"/>
    </contour>
  </outline>
</glyph>
<glyph name="uni096E" format="2">
  <advance width="551"/>
  <unicode hex="096E"/>
  <outline>
    <contour>
      <point x="268" y="-12" type="curve" smooth="yes"/>
      <point x="358" y="-12"/>
      <point x="410" y="3"/>
      <point x="466" y="35" type="curve" smooth="yes"/>
      <point x="478" y="42"/>
      <point x="481" y="50"/>
      <point x="481" y="61" type="curve" smooth="yes"/>
      <point x="481" y="84"/>
      <point x="466" y="108"/>
      <point x="443" y="108" type="curve" smooth="yes"/>
      <point x="437" y="108"/>
      <point x="430" y="106"/>
      <point x="423" y="102" type="curve" smooth="yes"/>
      <point x="388" y="83"/>
      <point x="345" y="61"/>
      <point x="272" y="61" type="curve" smooth="yes"/>
      <point x="205" y="61"/>
      <point x="154" y="94"/>
      <point x="154" y="158" type="curve" smooth="yes"/>
      <point x="154" y="210"/>
      <point x="186" y="259"/>
      <point x="265" y="354" type="curve" smooth="yes"/>
      <point x="392" y="506" type="line" smooth="yes"/>
      <point x="406" y="522"/>
      <point x="412" y="529"/>
      <point x="412" y="541" type="curve" smooth="yes"/>
      <point x="412" y="565"/>
      <point x="391" y="585"/>
      <point x="367" y="585" type="curve" smooth="yes"/>
      <point x="355" y="585"/>
      <point x="342" y="578"/>
      <point x="330" y="563" type="curve" smooth="yes"/>
      <point x="180" y="379" type="line" smooth="yes"/>
      <point x="103" y="284"/>
      <point x="72" y="226"/>
      <point x="72" y="160" type="curve" smooth="yes"/>
      <point x="72" y="49"/>
      <point x="165" y="-12"/>
    </contour>
  </outline>
</glyph>
<glyph name="uni096F" format="2">
  <advance width="551"/>
  <unicode hex="096F"/>
  <outline>
    <contour>
      <point x="395" y="-78" type="curve" smooth="yes"/>
      <point x="405" y="-78"/>
      <point x="417" y="-75"/>
      <point x="424" y="-66" type="curve" smooth="yes"/>
      <point x="464" y="-20"/>
      <point x="471" y="12"/>
      <point x="471" y="47" type="curve" smooth="yes"/>
      <point x="471" y="98"/>
      <point x="447" y="135"/>
      <point x="402" y="171" type="curve" smooth="yes"/>
      <point x="320" y="237" type="line" smooth="yes"/>
      <point x="305" y="249"/>
      <point x="291" y="260"/>
      <point x="276" y="270" type="curve"/>
      <point x="347" y="283"/>
      <point x="396" y="340"/>
      <point x="396" y="428" type="curve" smooth="yes"/>
      <point x="396" y="526"/>
      <point x="335" y="580"/>
      <point x="238" y="580" type="curve" smooth="yes"/>
      <point x="145" y="580"/>
      <point x="81" y="523"/>
      <point x="81" y="433" type="curve" smooth="yes"/>
      <point x="81" y="372"/>
      <point x="95" y="327"/>
      <point x="157" y="275" type="curve" smooth="yes"/>
      <point x="348" y="116" type="line" smooth="yes"/>
      <point x="380" y="89"/>
      <point x="388" y="74"/>
      <point x="388" y="47" type="curve" smooth="yes"/>
      <point x="388" y="22"/>
      <point x="379" y="4"/>
      <point x="364" y="-15" type="curve" smooth="yes"/>
      <point x="358" y="-23"/>
      <point x="354" y="-32"/>
      <point x="354" y="-39" type="curve" smooth="yes"/>
      <point x="354" y="-62"/>
      <point x="374" y="-78"/>
    </contour>
    <contour>
      <point x="237" y="334" type="curve" smooth="yes"/>
      <point x="191" y="334"/>
      <point x="161" y="371"/>
      <point x="161" y="427" type="curve" smooth="yes"/>
      <point x="161" y="475"/>
      <point x="188" y="509"/>
      <point x="240" y="509" type="curve" smooth="yes"/>
      <point x="279" y="509"/>
      <point x="316" y="485"/>
      <point x="316" y="430" type="curve" smooth="yes"/>
      <point x="316" y="373"/>
      <point x="281" y="334"/>
    </contour>
  </outline>
</glyph>
<glyph name="uniA831" format="2">
  <advance width="437"/>
  <unicode hex="A831"/>
  <outline>
    <contour>
      <point x="318" y="-10" type="curve" smooth="yes"/>
      <point x="338" y="-10"/>
      <point x="359" y="1"/>
      <point x="359" y="18" type="curve" smooth="yes"/>
      <point x="359" y="577" type="line" smooth="yes"/>
      <point x="359" y="594"/>
      <point x="338" y="605"/>
      <point x="318" y="605" type="curve" smooth="yes"/>
      <point x="298" y="605"/>
      <point x="278" y="594"/>
      <point x="278" y="577" type="curve" smooth="yes"/>
      <point x="278" y="18" type="line" smooth="yes"/>
      <point x="278" y="1"/>
      <point x="298" y="-10"/>
    </contour>
    <contour>
      <point x="118" y="-10" type="curve" smooth="yes"/>
      <point x="138" y="-10"/>
      <point x="159" y="1"/>
      <point x="159" y="18" type="curve" smooth="yes"/>
      <point x="159" y="577" type="line" smooth="yes"/>
      <point x="159" y="594"/>
      <point x="138" y="605"/>
      <point x="118" y="605" type="curve" smooth="yes"/>
      <point x="98" y="605"/>
      <point x="78" y="594"/>
      <point x="78" y="577" type="curve" smooth="yes"/>
      <point x="78" y="18" type="line" smooth="yes"/>
      <point x="78" y="1"/>
      <point x="98" y="-10"/>
    </contour>
  </outline>
</glyph>
<glyph name="uniA833" format="2">
  <advance width="622"/>
  <unicode hex="A833"/>
  <outline>
    <contour>
      <point x="72" y="393" type="curve" smooth="yes"/>
      <point x="73" y="393"/>
      <point x="75" y="393"/>
      <point x="78" y="394" type="curve" smooth="yes"/>
      <point x="565" y="518" type="line" smooth="yes"/>
      <point x="578" y="521"/>
      <point x="584" y="539"/>
      <point x="584" y="554" type="curve" smooth="yes"/>
      <point x="584" y="575"/>
      <point x="569" y="600"/>
      <point x="550" y="600" type="curve" smooth="yes"/>
      <point x="549" y="600"/>
      <point x="548" y="600"/>
      <point x="544" y="599" type="curve" smooth="yes"/>
      <point x="57" y="475" type="line" smooth="yes"/>
      <point x="45" y="472"/>
      <point x="38" y="458"/>
      <point x="38" y="443" type="curve" smooth="yes"/>
      <point x="38" y="422"/>
      <point x="53" y="393"/>
    </contour>
  </outline>
</glyph>
<glyph name="uniA834" format="2">
  <advance width="622"/>
  <unicode hex="A834"/>
  <outline>
    <contour>
      <point x="72" y="393" type="curve" smooth="yes"/>
      <point x="73" y="393"/>
      <point x="74" y="393"/>
      <point x="78" y="394" type="curve" smooth="yes"/>
      <point x="565" y="518" type="line" smooth="yes"/>
      <point x="578" y="521"/>
      <point x="584" y="539"/>
      <point x="584" y="554" type="curve" smooth="yes"/>
      <point x="584" y="575"/>
      <point x="569" y="600"/>
      <point x="550" y="600" type="curve" smooth="yes"/>
      <point x="549" y="600"/>
      <point x="548" y="600"/>
      <point x="544" y="599" type="curve" smooth="yes"/>
      <point x="57" y="475" type="line" smooth="yes"/>
      <point x="45" y="472"/>
      <point x="38" y="458"/>
      <point x="38" y="443" type="curve" smooth="yes"/>
      <point x="38" y="422"/>
      <point x="53" y="393"/>
    </contour>
    <contour>
      <point x="72" y="203" type="curve" smooth="yes"/>
      <point x="73" y="203"/>
      <point x="74" y="203"/>
      <point x="78" y="204" type="curve" smooth="yes"/>
      <point x="565" y="328" type="line" smooth="yes"/>
      <point x="578" y="331"/>
      <point x="584" y="349"/>
      <point x="584" y="364" type="curve" smooth="yes"/>
      <point x="584" y="385"/>
      <point x="569" y="410"/>
      <point x="550" y="410" type="curve" smooth="yes"/>
      <point x="549" y="410"/>
      <point x="548" y="410"/>
      <point x="544" y="409" type="curve" smooth="yes"/>
      <point x="57" y="285" type="line" smooth="yes"/>
      <point x="45" y="282"/>
      <point x="38" y="268"/>
      <point x="38" y="253" type="curve" smooth="yes"/>
      <point x="38" y="232"/>
      <point x="53" y="203"/>
    </contour>
  </outline>
</glyph>
<glyph name="uniA835" format="2">
  <advance width="622"/>
  <unicode hex="A835"/>
  <outline>
    <contour>
      <point x="72" y="393" type="curve" smooth="yes"/>
      <point x="73" y="393"/>
      <point x="74" y="393"/>
      <point x="78" y="394" type="curve" smooth="yes"/>
      <point x="565" y="518" type="line" smooth="yes"/>
      <point x="578" y="521"/>
      <point x="584" y="539"/>
      <point x="584" y="554" type="curve" smooth="yes"/>
      <point x="584" y="575"/>
      <point x="569" y="600"/>
      <point x="550" y="600" type="curve" smooth="yes"/>
      <point x="549" y="600"/>
      <point x="548" y="600"/>
      <point x="544" y="599" type="curve" smooth="yes"/>
      <point x="57" y="475" type="line" smooth="yes"/>
      <point x="45" y="472"/>
      <point x="38" y="458"/>
      <point x="38" y="443" type="curve" smooth="yes"/>
      <point x="38" y="422"/>
      <point x="53" y="393"/>
    </contour>
    <contour>
      <point x="72" y="-7" type="curve" smooth="yes"/>
      <point x="73" y="-7"/>
      <point x="74" y="-7"/>
      <point x="78" y="-6" type="curve" smooth="yes"/>
      <point x="565" y="118" type="line" smooth="yes"/>
      <point x="578" y="121"/>
      <point x="584" y="139"/>
      <point x="584" y="154" type="curve" smooth="yes"/>
      <point x="584" y="175"/>
      <point x="569" y="200"/>
      <point x="550" y="200" type="curve" smooth="yes"/>
      <point x="549" y="200"/>
      <point x="548" y="200"/>
      <point x="544" y="199" type="curve" smooth="yes"/>
      <point x="57" y="75" type="line" smooth="yes"/>
      <point x="45" y="72"/>
      <point x="38" y="58"/>
      <point x="38" y="43" type="curve" smooth="yes"/>
      <point x="38" y="22"/>
      <point x="53" y="-7"/>
    </contour>
    <contour>
      <point x="72" y="193" type="curve" smooth="yes"/>
      <point x="73" y="193"/>
      <point x="74" y="193"/>
      <point x="78" y="194" type="curve" smooth="yes"/>
      <point x="565" y="318" type="line" smooth="yes"/>
      <point x="578" y="321"/>
      <point x="584" y="339"/>
      <point x="584" y="354" type="curve" smooth="yes"/>
      <point x="584" y="375"/>
      <point x="569" y="400"/>
      <point x="550" y="400" type="curve" smooth="yes"/>
      <point x="549" y="400"/>
      <point x="548" y="400"/>
      <point x="544" y="399" type="curve" smooth="yes"/>
      <point x="57" y="275" type="line" smooth="yes"/>
      <point x="45" y="272"/>
      <point x="38" y="258"/>
      <point x="38" y="243" type="curve" smooth="yes"/>
      <point x="38" y="222"/>
      <point x="53" y="193"/>
    </contour>
  </outline>
</glyph>
<glyph name="uniA837" format="2">
  <advance width="509"/>
  <unicode hex="A837"/>
  <outline>
    <contour>
      <point x="221" y="81" type="curve" smooth="yes"/>
      <point x="317" y="81"/>
      <point x="383" y="147"/>
      <point x="383" y="235" type="curve" smooth="yes"/>
      <point x="383" y="310"/>
      <point x="338" y="366"/>
      <point x="262" y="382" type="curve"/>
      <point x="317" y="419"/>
      <point x="391" y="475"/>
      <point x="433" y="508" type="curve" smooth="yes"/>
      <point x="468" y="536" type="line" smooth="yes"/>
      <point x="476" y="542"/>
      <point x="480" y="551"/>
      <point x="480" y="559" type="curve" smooth="yes"/>
      <point x="480" y="579"/>
      <point x="460" y="600"/>
      <point x="439" y="600" type="curve" smooth="yes"/>
      <point x="433" y="600"/>
      <point x="427" y="598"/>
      <point x="421" y="594" type="curve" smooth="yes"/>
      <point x="158" y="390" type="line" smooth="yes"/>
      <point x="86" y="334"/>
      <point x="57" y="296"/>
      <point x="57" y="235" type="curve" smooth="yes"/>
      <point x="57" y="146"/>
      <point x="124" y="81"/>
    </contour>
    <contour>
      <point x="220" y="151" type="curve" smooth="yes"/>
      <point x="167" y="151"/>
      <point x="133" y="184"/>
      <point x="133" y="235" type="curve" smooth="yes"/>
      <point x="133" y="284"/>
      <point x="167" y="318"/>
      <point x="220" y="318" type="curve" smooth="yes"/>
      <point x="272" y="318"/>
      <point x="307" y="283"/>
      <point x="307" y="235" type="curve" smooth="yes"/>
      <point x="307" y="184"/>
      <point x="273" y="151"/>
    </contour>
  </outline>
</glyph>
<glyph name="uniA838" format="2">
  <advance width="307"/>
  <unicode hex="A838"/>
  <outline>
    <contour>
      <point x="-61" y="-188" type="curve" smooth="yes"/>
      <point x="147" y="-188"/>
      <point x="246" y="-91"/>
      <point x="246" y="177" type="curve" smooth="yes"/>
      <point x="246" y="242"/>
      <point x="240" y="312"/>
      <point x="229" y="395" type="curve" smooth="yes"/>
      <point x="221" y="456"/>
      <point x="211" y="513"/>
      <point x="195" y="567" type="curve" smooth="yes"/>
      <point x="188" y="591"/>
      <point x="174" y="600"/>
      <point x="152" y="600" type="curve" smooth="yes"/>
      <point x="127" y="600"/>
      <point x="113" y="586"/>
      <point x="113" y="567" type="curve" smooth="yes"/>
      <point x="113" y="561"/>
      <point x="115" y="552"/>
      <point x="117" y="546" type="curve" smooth="yes"/>
      <point x="143" y="458"/>
      <point x="164" y="289"/>
      <point x="164" y="180" type="curve" smooth="yes"/>
      <point x="163" y="-41"/>
      <point x="97" y="-115"/>
      <point x="-63" y="-115" type="curve" smooth="yes"/>
      <point x="-92" y="-115"/>
      <point x="-128" y="-106"/>
      <point x="-139" y="-106" type="curve" smooth="yes"/>
      <point x="-153" y="-106"/>
      <point x="-162" y="-126"/>
      <point x="-162" y="-145" type="curve" smooth="yes"/>
      <point x="-162" y="-162"/>
      <point x="-155" y="-178"/>
      <point x="-137" y="-181" type="curve" smooth="yes"/>
      <point x="-110" y="-186"/>
      <point x="-84" y="-188"/>
    </contour>
  </outline>
</glyph>
<glyph name="uniA839" format="2">
  <advance width="337"/>
  <unicode hex="A839"/>
  <outline>
    <contour>
      <point x="-100" y="-240" type="curve" smooth="yes"/>
      <point x="136" y="-240"/>
      <point x="255" y="-148"/>
      <point x="255" y="23" type="curve" smooth="yes"/>
      <point x="255" y="95"/>
      <point x="235" y="165"/>
      <point x="200" y="240" type="curve" smooth="yes"/>
      <point x="175" y="293"/>
      <point x="146" y="362"/>
      <point x="146" y="413" type="curve" smooth="yes"/>
      <point x="146" y="469"/>
      <point x="185" y="507"/>
      <point x="251" y="528" type="curve" smooth="yes"/>
      <point x="261" y="531"/>
      <point x="268" y="542"/>
      <point x="268" y="552" type="curve" smooth="yes"/>
      <point x="268" y="573"/>
      <point x="249" y="600"/>
      <point x="231" y="600" type="curve" smooth="yes"/>
      <point x="221" y="600"/>
      <point x="212" y="596"/>
      <point x="200" y="590" type="curve" smooth="yes"/>
      <point x="125" y="553"/>
      <point x="65" y="504"/>
      <point x="65" y="413" type="curve" smooth="yes"/>
      <point x="65" y="354"/>
      <point x="83" y="298"/>
      <point x="119" y="220" type="curve" smooth="yes"/>
      <point x="153" y="147"/>
      <point x="174" y="86"/>
      <point x="174" y="22" type="curve" smooth="yes"/>
      <point x="174" y="-106"/>
      <point x="80" y="-165"/>
      <point x="-104" y="-165" type="curve" smooth="yes"/>
      <point x="-115" y="-165"/>
      <point x="-128" y="-164"/>
      <point x="-133" y="-164" type="curve" smooth="yes"/>
      <point x="-150" y="-164"/>
      <point x="-159" y="-181"/>
      <point x="-159" y="-201" type="curve" smooth="yes"/>
      <point x="-159" y="-221"/>
      <point x="-151" y="-238"/>
      <point x="-136" y="-239" type="curve" smooth="yes"/>
      <point x="-117" y="-240"/>
      <point x="-112" y="-240"/>
    </contour>
  </outline>
</glyph>
<glyph name="u11150" format="2">
  <advance width="921"/>
  <unicode hex="11150"/>
  <outline>
    <contour>
      <point x="126" y="168" type="curve" smooth="yes"/>
      <point x="148" y="168"/>
      <point x="165" y="179"/>
      <point x="165" y="202" type="curve" smooth="yes"/>
      <point x="165" y="223"/>
      <point x="124" y="261"/>
      <point x="124" y="342" type="curve" smooth="yes"/>
      <point x="124" y="413"/>
      <point x="164" y="450"/>
      <point x="209" y="450" type="curve" smooth="yes"/>
      <point x="278" y="450"/>
      <point x="300" y="358"/>
      <point x="302" y="307" type="curve"/>
      <point x="300" y="293"/>
      <point x="299" y="278"/>
      <point x="299" y="264" type="curve" smooth="yes"/>
      <point x="299" y="227"/>
      <point x="320" y="220"/>
      <point x="338" y="220" type="curve" smooth="yes"/>
      <point x="354" y="220"/>
      <point x="369" y="230"/>
      <point x="371" y="247" type="curve" smooth="yes"/>
      <point x="375" y="276" type="line" smooth="yes"/>
      <point x="390" y="388"/>
      <point x="422" y="450"/>
      <point x="473" y="450" type="curve" smooth="yes"/>
      <point x="539" y="450"/>
      <point x="559" y="363"/>
      <point x="559" y="323" type="curve" smooth="yes"/>
      <point x="559" y="312"/>
      <point x="559" y="298"/>
      <point x="558" y="285" type="curve" smooth="yes"/>
      <point x="557" y="272"/>
      <point x="557" y="260"/>
      <point x="557" y="252" type="curve" smooth="yes"/>
      <point x="557" y="232"/>
      <point x="574" y="221"/>
      <point x="591" y="221" type="curve" smooth="yes"/>
      <point x="607" y="221"/>
      <point x="624" y="230"/>
      <point x="626" y="250" type="curve" smooth="yes"/>
      <point x="627" y="257"/>
      <point x="629" y="273"/>
      <point x="629" y="288" type="curve"/>
      <point x="641" y="386"/>
      <point x="678" y="450"/>
      <point x="738" y="450" type="curve" smooth="yes"/>
      <point x="781" y="450"/>
      <point x="797" y="397"/>
      <point x="797" y="356" type="curve" smooth="yes"/>
      <point x="797" y="317"/>
      <point x="786" y="258"/>
      <point x="779" y="237" type="curve" smooth="yes"/>
      <point x="778" y="233"/>
      <point x="777" y="224"/>
      <point x="777" y="220" type="curve" smooth="yes"/>
      <point x="777" y="202"/>
      <point x="791" y="193"/>
      <point x="812" y="193" type="curve" smooth="yes"/>
      <point x="824" y="193"/>
      <point x="844" y="204"/>
      <point x="851" y="218" type="curve" smooth="yes"/>
      <point x="861" y="237"/>
      <point x="881" y="320"/>
      <point x="881" y="359" type="curve" smooth="yes"/>
      <point x="881" y="446"/>
      <point x="845" y="530"/>
      <point x="739" y="530" type="curve" smooth="yes"/>
      <point x="680" y="530"/>
      <point x="635" y="502"/>
      <point x="604" y="451" type="curve"/>
      <point x="581" y="496"/>
      <point x="540" y="530"/>
      <point x="472" y="530" type="curve" smooth="yes"/>
      <point x="420" y="530"/>
      <point x="372" y="502"/>
      <point x="340" y="446" type="curve"/>
      <point x="314" y="494"/>
      <point x="272" y="530"/>
      <point x="210" y="530" type="curve" smooth="yes"/>
      <point x="95" y="530"/>
      <point x="40" y="436"/>
      <point x="40" y="351" type="curve" smooth="yes"/>
      <point x="40" y="275"/>
      <point x="66" y="212"/>
      <point x="89" y="186" type="curve" smooth="yes"/>
      <point x="98" y="176"/>
      <point x="108" y="168"/>
    </contour>
  </outline>
</glyph>
<glyph name="u11151" format="2">
  <advance width="418"/>
  <unicode hex="11151"/>
  <outline>
    <contour>
      <point x="213" y="-12" type="curve" smooth="yes"/>
      <point x="327" y="-12"/>
      <point x="376" y="84"/>
      <point x="376" y="163" type="curve" smooth="yes"/>
      <point x="376" y="247"/>
      <point x="316" y="327"/>
      <point x="205" y="327" type="curve" smooth="yes"/>
      <point x="190" y="327"/>
      <point x="177" y="326"/>
      <point x="165" y="324" type="curve"/>
      <point x="215" y="424"/>
      <point x="303" y="534"/>
      <point x="372" y="591" type="curve" smooth="yes"/>
      <point x="383" y="600"/>
      <point x="388" y="611"/>
      <point x="388" y="622" type="curve" smooth="yes"/>
      <point x="388" y="640"/>
      <point x="381" y="655"/>
      <point x="356" y="655" type="curve" smooth="yes"/>
      <point x="336" y="655"/>
      <point x="323" y="646"/>
      <point x="309" y="635" type="curve" smooth="yes"/>
      <point x="200" y="549"/>
      <point x="40" y="338"/>
      <point x="40" y="194" type="curve" smooth="yes"/>
      <point x="40" y="42"/>
      <point x="124" y="-12"/>
    </contour>
    <contour>
      <point x="211" y="68" type="curve" smooth="yes"/>
      <point x="171" y="68"/>
      <point x="124" y="101"/>
      <point x="124" y="190" type="curve" smooth="yes"/>
      <point x="124" y="204"/>
      <point x="126" y="219"/>
      <point x="130" y="235" type="curve"/>
      <point x="148" y="242"/>
      <point x="169" y="247"/>
      <point x="189" y="247" type="curve" smooth="yes"/>
      <point x="261" y="247"/>
      <point x="292" y="200"/>
      <point x="292" y="157" type="curve" smooth="yes"/>
      <point x="292" y="115"/>
      <point x="262" y="68"/>
    </contour>
  </outline>
</glyph>
<glyph name="u11152" format="2">
  <advance width="574"/>
  <unicode hex="11152"/>
  <outline>
    <contour>
      <point x="297" y="-12" type="curve" smooth="yes"/>
      <point x="430" y="-12"/>
      <point x="477" y="90"/>
      <point x="477" y="144" type="curve" smooth="yes"/>
      <point x="477" y="181"/>
      <point x="463" y="235"/>
      <point x="422" y="264" type="curve"/>
      <point x="451" y="289"/>
      <point x="468" y="323"/>
      <point x="468" y="358" type="curve" smooth="yes"/>
      <point x="468" y="442"/>
      <point x="400" y="489"/>
      <point x="332" y="489" type="curve" smooth="yes"/>
      <point x="290" y="489"/>
      <point x="255" y="474"/>
      <point x="225" y="456" type="curve" smooth="yes"/>
      <point x="216" y="450"/>
      <point x="212" y="439"/>
      <point x="212" y="429" type="curve" smooth="yes"/>
      <point x="212" y="412"/>
      <point x="224" y="393"/>
      <point x="241" y="393" type="curve" smooth="yes"/>
      <point x="243" y="393"/>
      <point x="246" y="394"/>
      <point x="251" y="397" type="curve" smooth="yes"/>
      <point x="266" y="406"/>
      <point x="300" y="415"/>
      <point x="323" y="415" type="curve" smooth="yes"/>
      <point x="370" y="415"/>
      <point x="387" y="381"/>
      <point x="387" y="355" type="curve" smooth="yes"/>
      <point x="387" y="325"/>
      <point x="361" y="289"/>
      <point x="312" y="288" type="curve"/>
      <point x="300" y="285"/>
      <point x="295" y="271"/>
      <point x="295" y="258" type="curve" smooth="yes"/>
      <point x="295" y="242"/>
      <point x="303" y="226"/>
      <point x="312" y="225" type="curve" smooth="yes"/>
      <point x="319" y="225"/>
      <point x="326" y="225"/>
      <point x="333" y="226" type="curve"/>
      <point x="384" y="219"/>
      <point x="396" y="174"/>
      <point x="396" y="155" type="curve" smooth="yes"/>
      <point x="396" y="104"/>
      <point x="356" y="64"/>
      <point x="302" y="64" type="curve" smooth="yes"/>
      <point x="240" y="64"/>
      <point x="124" y="116"/>
      <point x="124" y="295" type="curve" smooth="yes"/>
      <point x="124" y="446"/>
      <point x="204" y="575"/>
      <point x="342" y="575" type="curve" smooth="yes"/>
      <point x="392" y="575"/>
      <point x="456" y="568"/>
      <point x="490" y="546" type="curve" smooth="yes"/>
      <point x="499" y="540"/>
      <point x="511" y="533"/>
      <point x="519" y="533" type="curve" smooth="yes"/>
      <point x="539" y="533"/>
      <point x="554" y="548"/>
      <point x="554" y="566" type="curve" smooth="yes"/>
      <point x="554" y="576"/>
      <point x="549" y="587"/>
      <point x="537" y="595" type="curve" smooth="yes"/>
      <point x="480" y="634"/>
      <point x="423" y="655"/>
      <point x="345" y="655" type="curve" smooth="yes"/>
      <point x="172" y="655"/>
      <point x="40" y="507"/>
      <point x="40" y="293" type="curve" smooth="yes"/>
      <point x="40" y="114"/>
      <point x="149" y="-12"/>
    </contour>
  </outline>
</glyph>
<glyph name="u11153" format="2">
  <advance width="609"/>
  <unicode hex="11153"/>
  <outline>
    <contour>
      <point x="55" y="-12" type="curve" smooth="yes"/>
      <point x="83" y="-12"/>
      <point x="99" y="25"/>
      <point x="112" y="47" type="curve" smooth="yes"/>
      <point x="146" y="102"/>
      <point x="180" y="144"/>
      <point x="217" y="182" type="curve"/>
      <point x="233" y="178"/>
      <point x="250" y="176"/>
      <point x="270" y="176" type="curve" smooth="yes"/>
      <point x="376" y="176"/>
      <point x="422" y="231"/>
      <point x="475" y="316" type="curve" smooth="yes"/>
      <point x="547" y="432" type="line" smooth="yes"/>
      <point x="559" y="451"/>
      <point x="579" y="476"/>
      <point x="579" y="498" type="curve" smooth="yes"/>
      <point x="579" y="514"/>
      <point x="566" y="530"/>
      <point x="537" y="530" type="curve" smooth="yes"/>
      <point x="521" y="530"/>
      <point x="505" y="514"/>
      <point x="489" y="488" type="curve" smooth="yes"/>
      <point x="408" y="359" type="line" smooth="yes"/>
      <point x="372" y="302"/>
      <point x="342" y="256"/>
      <point x="275" y="256" type="curve" smooth="yes"/>
      <point x="218" y="256"/>
      <point x="183" y="282"/>
      <point x="183" y="344" type="curve" smooth="yes"/>
      <point x="183" y="398"/>
      <point x="231" y="449"/>
      <point x="274" y="484" type="curve" smooth="yes"/>
      <point x="317" y="519"/>
      <point x="321" y="530"/>
      <point x="321" y="551" type="curve" smooth="yes"/>
      <point x="321" y="570"/>
      <point x="308" y="580"/>
      <point x="285" y="580" type="curve" smooth="yes"/>
      <point x="265" y="580"/>
      <point x="236" y="556"/>
      <point x="216" y="539" type="curve" smooth="yes"/>
      <point x="149" y="484"/>
      <point x="99" y="416"/>
      <point x="99" y="338" type="curve" smooth="yes"/>
      <point x="99" y="301"/>
      <point x="112" y="255"/>
      <point x="145" y="222" type="curve"/>
      <point x="106" y="176"/>
      <point x="67" y="127"/>
      <point x="40" y="83" type="curve" smooth="yes"/>
      <point x="25" y="58"/>
      <point x="20" y="38"/>
      <point x="20" y="22" type="curve" smooth="yes"/>
      <point x="20" y="6"/>
      <point x="32" y="-12"/>
    </contour>
  </outline>
</glyph>
<glyph name="u11154" format="2">
  <advance width="991"/>
  <unicode hex="11154"/>
  <outline>
    <contour>
      <point x="238" y="472" type="curve"/>
      <point x="257" y="482"/>
      <point x="298" y="485"/>
      <point x="317" y="493" type="curve"/>
      <point x="318" y="502"/>
      <point x="319" y="511"/>
      <point x="319" y="518" type="curve" smooth="yes"/>
      <point x="319" y="610"/>
      <point x="255" y="656"/>
      <point x="196" y="656" type="curve" smooth="yes"/>
      <point x="160" y="656"/>
      <point x="137" y="653"/>
      <point x="114" y="653" type="curve" smooth="yes"/>
      <point x="62" y="653"/>
      <point x="39" y="675"/>
      <point x="22" y="702" type="curve" smooth="yes"/>
      <point x="16" y="712"/>
      <point x="7" y="716"/>
      <point x="-2" y="716" type="curve" smooth="yes"/>
      <point x="-24" y="716"/>
      <point x="-40" y="696"/>
      <point x="-40" y="672" type="curve" smooth="yes"/>
      <point x="-40" y="667"/>
      <point x="-38" y="662"/>
      <point x="-35" y="658" type="curve"/>
      <point x="-10" y="610"/>
      <point x="26" y="575"/>
      <point x="95" y="575" type="curve" smooth="yes"/>
      <point x="116" y="575"/>
      <point x="133" y="578"/>
      <point x="182" y="578" type="curve" smooth="yes"/>
      <point x="207" y="578"/>
      <point x="241" y="561"/>
      <point x="241" y="504" type="curve" smooth="yes"/>
      <point x="241" y="494"/>
      <point x="240" y="484"/>
    </contour>
    <component base="u11150" xOffset="70"/>
  </outline>
</glyph>
<glyph name="u11155" format="2">
  <advance width="475"/>
  <unicode hex="11155"/>
  <outline>
    <contour>
      <point x="200" y="-24" type="curve" smooth="yes"/>
      <point x="203" y="-24"/>
      <point x="216" y="-24"/>
      <point x="219" y="-23" type="curve" smooth="yes"/>
      <point x="350" y="0"/>
      <point x="435" y="79"/>
      <point x="435" y="177" type="curve" smooth="yes"/>
      <point x="435" y="261"/>
      <point x="387" y="316"/>
      <point x="318" y="337" type="curve"/>
      <point x="354" y="369"/>
      <point x="373" y="409"/>
      <point x="373" y="458" type="curve" smooth="yes"/>
      <point x="373" y="527"/>
      <point x="321" y="600"/>
      <point x="207" y="600" type="curve" smooth="yes"/>
      <point x="140" y="600"/>
      <point x="61" y="559"/>
      <point x="36" y="528" type="curve" smooth="yes"/>
      <point x="20" y="508"/>
      <point x="20" y="500"/>
      <point x="20" y="489" type="curve" smooth="yes"/>
      <point x="20" y="473"/>
      <point x="31" y="462"/>
      <point x="52" y="462" type="curve" smooth="yes"/>
      <point x="60" y="462"/>
      <point x="71" y="467"/>
      <point x="80" y="473" type="curve" smooth="yes"/>
      <point x="88" y="479"/>
      <point x="104" y="490"/>
      <point x="126" y="501" type="curve" smooth="yes"/>
      <point x="148" y="512"/>
      <point x="174" y="520"/>
      <point x="207" y="520" type="curve" smooth="yes"/>
      <point x="264" y="520"/>
      <point x="289" y="488"/>
      <point x="289" y="455" type="curve" smooth="yes"/>
      <point x="289" y="396"/>
      <point x="240" y="353"/>
      <point x="164" y="339" type="curve" smooth="yes"/>
      <point x="146" y="336"/>
      <point x="136" y="322"/>
      <point x="136" y="307" type="curve" smooth="yes"/>
      <point x="136" y="288"/>
      <point x="150" y="270"/>
      <point x="166" y="270" type="curve" smooth="yes"/>
      <point x="192" y="270"/>
      <point x="214" y="278"/>
      <point x="238" y="278" type="curve" smooth="yes"/>
      <point x="296" y="278"/>
      <point x="351" y="250"/>
      <point x="351" y="180" type="curve" smooth="yes"/>
      <point x="351" y="116"/>
      <point x="290" y="57"/>
      <point x="195" y="40" type="curve" smooth="yes"/>
      <point x="174" y="36"/>
      <point x="165" y="21"/>
      <point x="165" y="6" type="curve" smooth="yes"/>
      <point x="165" y="-12"/>
      <point x="178" y="-24"/>
    </contour>
  </outline>
</glyph>
<glyph name="u11156" format="2">
  <advance width="453"/>
  <unicode hex="11156"/>
  <outline>
    <contour>
      <point x="145" y="-17" type="curve" smooth="yes"/>
      <point x="162" y="-17"/>
      <point x="177" y="3"/>
      <point x="188" y="20" type="curve" smooth="yes"/>
      <point x="225" y="79"/>
      <point x="282" y="123"/>
      <point x="387" y="173" type="curve" smooth="yes"/>
      <point x="398" y="178"/>
      <point x="409" y="183"/>
      <point x="417" y="187" type="curve" smooth="yes"/>
      <point x="427" y="192"/>
      <point x="433" y="204"/>
      <point x="433" y="217" type="curve" smooth="yes"/>
      <point x="433" y="240"/>
      <point x="416" y="262"/>
      <point x="396" y="262" type="curve" smooth="yes"/>
      <point x="392" y="262"/>
      <point x="388" y="261"/>
      <point x="384" y="259" type="curve" smooth="yes"/>
      <point x="341" y="233"/>
      <point x="290" y="217"/>
      <point x="244" y="217" type="curve" smooth="yes"/>
      <point x="182" y="217"/>
      <point x="120" y="253"/>
      <point x="120" y="342" type="curve" smooth="yes"/>
      <point x="120" y="432"/>
      <point x="211" y="510"/>
      <point x="265" y="528" type="curve" smooth="yes"/>
      <point x="277" y="532"/>
      <point x="292" y="545"/>
      <point x="292" y="562" type="curve" smooth="yes"/>
      <point x="292" y="589"/>
      <point x="275" y="600"/>
      <point x="255" y="600" type="curve" smooth="yes"/>
      <point x="245" y="600"/>
      <point x="234" y="596"/>
      <point x="223" y="591" type="curve" smooth="yes"/>
      <point x="106" y="540"/>
      <point x="40" y="438"/>
      <point x="40" y="334" type="curve" smooth="yes"/>
      <point x="40" y="233"/>
      <point x="105" y="160"/>
      <point x="195" y="144" type="curve"/>
      <point x="165" y="117"/>
      <point x="140" y="87"/>
      <point x="122" y="59" type="curve" smooth="yes"/>
      <point x="112" y="44"/>
      <point x="106" y="27"/>
      <point x="106" y="14" type="curve" smooth="yes"/>
      <point x="106" y="-4"/>
      <point x="117" y="-17"/>
    </contour>
  </outline>
</glyph>
<glyph name="u11157" format="2">
  <advance width="667"/>
  <unicode hex="11157"/>
  <outline>
    <contour>
      <point x="201" y="89" type="curve" smooth="yes"/>
      <point x="211" y="89"/>
      <point x="222" y="91"/>
      <point x="233" y="96" type="curve" smooth="yes"/>
      <point x="347" y="144"/>
      <point x="416" y="231"/>
      <point x="416" y="335" type="curve" smooth="yes"/>
      <point x="416" y="450"/>
      <point x="328" y="530"/>
      <point x="209" y="530" type="curve" smooth="yes"/>
      <point x="132" y="530"/>
      <point x="88" y="508"/>
      <point x="75" y="501" type="curve" smooth="yes"/>
      <point x="44" y="485"/>
      <point x="20" y="472"/>
      <point x="20" y="444" type="curve" smooth="yes"/>
      <point x="20" y="424"/>
      <point x="34" y="407"/>
      <point x="55" y="407" type="curve" smooth="yes"/>
      <point x="59" y="407"/>
      <point x="63" y="408"/>
      <point x="67" y="410" type="curve" smooth="yes"/>
      <point x="110" y="436"/>
      <point x="162" y="454"/>
      <point x="208" y="454" type="curve" smooth="yes"/>
      <point x="270" y="454"/>
      <point x="332" y="416"/>
      <point x="332" y="327" type="curve" smooth="yes"/>
      <point x="332" y="237"/>
      <point x="237" y="176"/>
      <point x="183" y="158" type="curve" smooth="yes"/>
      <point x="171" y="154"/>
      <point x="164" y="137"/>
      <point x="164" y="128" type="curve" smooth="yes"/>
      <point x="164" y="97"/>
      <point x="181" y="89"/>
    </contour>
    <contour>
      <point x="500" y="67" type="curve" smooth="yes"/>
      <point x="514" y="67"/>
      <point x="529" y="73"/>
      <point x="539" y="86" type="curve" smooth="yes"/>
      <point x="597" y="159"/>
      <point x="617" y="254"/>
      <point x="617" y="323" type="curve" smooth="yes"/>
      <point x="617" y="392"/>
      <point x="598" y="487"/>
      <point x="539" y="561" type="curve" smooth="yes"/>
      <point x="529" y="574"/>
      <point x="514" y="580"/>
      <point x="500" y="580" type="curve" smooth="yes"/>
      <point x="480" y="580"/>
      <point x="464" y="564"/>
      <point x="464" y="542" type="curve" smooth="yes"/>
      <point x="464" y="535"/>
      <point x="468" y="524"/>
      <point x="473" y="517" type="curve" smooth="yes"/>
      <point x="522" y="456"/>
      <point x="533" y="387"/>
      <point x="533" y="329" type="curve" smooth="yes"/>
      <point x="533" y="270"/>
      <point x="522" y="187"/>
      <point x="473" y="129" type="curve" smooth="yes"/>
      <point x="467" y="122"/>
      <point x="464" y="112"/>
      <point x="464" y="105" type="curve" smooth="yes"/>
      <point x="464" y="83"/>
      <point x="480" y="67"/>
    </contour>
  </outline>
</glyph>
<glyph name="u11158" format="2">
  <advance width="740"/>
  <unicode hex="11158"/>
  <outline>
    <contour>
      <point x="327" y="-12" type="curve" smooth="yes"/>
      <point x="441" y="-12"/>
      <point x="507" y="50"/>
      <point x="552" y="141" type="curve"/>
      <point x="574" y="92"/>
      <point x="612" y="42"/>
      <point x="678" y="-6" type="curve" smooth="yes"/>
      <point x="682" y="-9"/>
      <point x="692" y="-12"/>
      <point x="697" y="-12" type="curve" smooth="yes"/>
      <point x="722" y="-12"/>
      <point x="740" y="8"/>
      <point x="740" y="28" type="curve" smooth="yes"/>
      <point x="740" y="38"/>
      <point x="736" y="47"/>
      <point x="726" y="55" type="curve" smooth="yes"/>
      <point x="652" y="116"/>
      <point x="609" y="170"/>
      <point x="609" y="267" type="curve" smooth="yes"/>
      <point x="609" y="294"/>
      <point x="613" y="311"/>
      <point x="613" y="327" type="curve" smooth="yes"/>
      <point x="613" y="347"/>
      <point x="600" y="356"/>
      <point x="578" y="356" type="curve" smooth="yes"/>
      <point x="559" y="356"/>
      <point x="541" y="349"/>
      <point x="537" y="334" type="curve" smooth="yes"/>
      <point x="500" y="199"/>
      <point x="450" y="70"/>
      <point x="326" y="70" type="curve" smooth="yes"/>
      <point x="259" y="70"/>
      <point x="226" y="119"/>
      <point x="226" y="174" type="curve" smooth="yes"/>
      <point x="226" y="206"/>
      <point x="240" y="238"/>
      <point x="263" y="265" type="curve" smooth="yes"/>
      <point x="285" y="291"/>
      <point x="314" y="306"/>
      <point x="314" y="329" type="curve" smooth="yes"/>
      <point x="314" y="349"/>
      <point x="300" y="362"/>
      <point x="285" y="362" type="curve" smooth="yes"/>
      <point x="281" y="362"/>
      <point x="277" y="361"/>
      <point x="273" y="359" type="curve" smooth="yes"/>
      <point x="253" y="346" type="line" smooth="yes"/>
      <point x="232" y="333"/>
      <point x="207" y="326"/>
      <point x="185" y="326" type="curve" smooth="yes"/>
      <point x="152" y="326"/>
      <point x="124" y="347"/>
      <point x="124" y="387" type="curve" smooth="yes"/>
      <point x="124" y="437"/>
      <point x="158" y="498"/>
      <point x="235" y="533" type="curve" smooth="yes"/>
      <point x="251" y="540"/>
      <point x="256" y="551"/>
      <point x="256" y="562" type="curve" smooth="yes"/>
      <point x="256" y="582"/>
      <point x="246" y="600"/>
      <point x="224" y="600" type="curve" smooth="yes"/>
      <point x="220" y="600"/>
      <point x="206" y="596"/>
      <point x="196" y="592" type="curve" smooth="yes"/>
      <point x="104" y="553"/>
      <point x="40" y="473"/>
      <point x="40" y="389" type="curve" smooth="yes"/>
      <point x="40" y="298"/>
      <point x="100" y="250"/>
      <point x="161" y="248" type="curve"/>
      <point x="148" y="222"/>
      <point x="142" y="194"/>
      <point x="142" y="164" type="curve" smooth="yes"/>
      <point x="142" y="45"/>
      <point x="232" y="-12"/>
    </contour>
  </outline>
</glyph>
<glyph name="u11159" format="2">
  <advance width="723"/>
  <unicode hex="11159"/>
  <outline>
    <contour>
      <point x="679" y="-23" type="curve" smooth="yes"/>
      <point x="700" y="-23"/>
      <point x="713" y="-7"/>
      <point x="713" y="16" type="curve" smooth="yes"/>
      <point x="713" y="29"/>
      <point x="706" y="42"/>
      <point x="695" y="61" type="curve" smooth="yes"/>
      <point x="653" y="131"/>
      <point x="602" y="262"/>
      <point x="602" y="377" type="curve" smooth="yes"/>
      <point x="602" y="409"/>
      <point x="607" y="439"/>
      <point x="617" y="467" type="curve" smooth="yes"/>
      <point x="620" y="476"/>
      <point x="622" y="485"/>
      <point x="622" y="492" type="curve" smooth="yes"/>
      <point x="622" y="517"/>
      <point x="604" y="530"/>
      <point x="585" y="530" type="curve" smooth="yes"/>
      <point x="572" y="530"/>
      <point x="562" y="525"/>
      <point x="546" y="512" type="curve" smooth="yes"/>
      <point x="479" y="458"/>
      <point x="409" y="379"/>
      <point x="330" y="266" type="curve"/>
      <point x="305" y="353"/>
      <point x="270" y="442"/>
      <point x="257" y="469" type="curve" smooth="yes"/>
      <point x="241" y="501"/>
      <point x="212" y="530"/>
      <point x="185" y="530" type="curve" smooth="yes"/>
      <point x="135" y="530"/>
      <point x="46" y="476"/>
      <point x="1" y="429" type="curve" smooth="yes"/>
      <point x="-7" y="421"/>
      <point x="-10" y="410"/>
      <point x="-10" y="401" type="curve" smooth="yes"/>
      <point x="-10" y="380"/>
      <point x="6" y="362"/>
      <point x="30" y="362" type="curve" smooth="yes"/>
      <point x="40" y="362"/>
      <point x="48" y="368"/>
      <point x="52" y="371" type="curve" smooth="yes"/>
      <point x="94" y="401"/>
      <point x="128" y="421"/>
      <point x="171" y="444" type="curve"/>
      <point x="215" y="363"/>
      <point x="251" y="226"/>
      <point x="269" y="156" type="curve" smooth="yes"/>
      <point x="275" y="133"/>
      <point x="289" y="121"/>
      <point x="307" y="121" type="curve" smooth="yes"/>
      <point x="321" y="121"/>
      <point x="334" y="128"/>
      <point x="345" y="145" type="curve" smooth="yes"/>
      <point x="389" y="213"/>
      <point x="453" y="298"/>
      <point x="516" y="369" type="curve"/>
      <point x="516" y="217"/>
      <point x="596" y="55"/>
      <point x="633" y="6" type="curve" smooth="yes"/>
      <point x="645" y="-10"/>
      <point x="661" y="-23"/>
    </contour>
  </outline>
</glyph>
<glyph name="u1115A" format="2">
  <advance width="725"/>
  <unicode hex="1115A"/>
  <outline>
    <contour>
      <point x="579" y="-56" type="curve" smooth="yes"/>
      <point x="626" y="-56"/>
      <point x="685" y="-27"/>
      <point x="685" y="60" type="curve" smooth="yes"/>
      <point x="685" y="126"/>
      <point x="631" y="177"/>
      <point x="573" y="222" type="curve"/>
      <point x="595" y="279"/>
      <point x="607" y="335"/>
      <point x="607" y="381" type="curve" smooth="yes"/>
      <point x="607" y="441"/>
      <point x="574" y="520"/>
      <point x="477" y="520" type="curve" smooth="yes"/>
      <point x="392" y="520"/>
      <point x="349" y="454"/>
      <point x="349" y="382" type="curve" smooth="yes"/>
      <point x="349" y="305"/>
      <point x="410" y="247"/>
      <point x="473" y="197" type="curve"/>
      <point x="434" y="127"/>
      <point x="376" y="68"/>
      <point x="299" y="68" type="curve" smooth="yes"/>
      <point x="241" y="68"/>
      <point x="191" y="108"/>
      <point x="191" y="161" type="curve" smooth="yes"/>
      <point x="191" y="200"/>
      <point x="211" y="236"/>
      <point x="244" y="265" type="curve" smooth="yes"/>
      <point x="273" y="290"/>
      <point x="304" y="299"/>
      <point x="304" y="327" type="curve" smooth="yes"/>
      <point x="304" y="344"/>
      <point x="293" y="356"/>
      <point x="280" y="358" type="curve" smooth="yes"/>
      <point x="276" y="358"/>
      <point x="272" y="358"/>
      <point x="268" y="357" type="curve" smooth="yes"/>
      <point x="240" y="346"/>
      <point x="221" y="336"/>
      <point x="192" y="336" type="curve" smooth="yes"/>
      <point x="155" y="336"/>
      <point x="124" y="363"/>
      <point x="124" y="402" type="curve" smooth="yes"/>
      <point x="124" y="455"/>
      <point x="165" y="507"/>
      <point x="252" y="532" type="curve" smooth="yes"/>
      <point x="274" y="538"/>
      <point x="278" y="552"/>
      <point x="278" y="566" type="curve" smooth="yes"/>
      <point x="278" y="583"/>
      <point x="269" y="600"/>
      <point x="248" y="600" type="curve" smooth="yes"/>
      <point x="242" y="600"/>
      <point x="231" y="598"/>
      <point x="222" y="596" type="curve" smooth="yes"/>
      <point x="113" y="568"/>
      <point x="40" y="496"/>
      <point x="40" y="401" type="curve" smooth="yes"/>
      <point x="40" y="327"/>
      <point x="86" y="276"/>
      <point x="140" y="264" type="curve"/>
      <point x="118" y="231"/>
      <point x="107" y="194"/>
      <point x="107" y="152" type="curve" smooth="yes"/>
      <point x="107" y="36"/>
      <point x="210" y="-12"/>
      <point x="299" y="-12" type="curve" smooth="yes"/>
      <point x="403" y="-12"/>
      <point x="484" y="60"/>
      <point x="537" y="148" type="curve"/>
      <point x="575" y="118"/>
      <point x="605" y="89"/>
      <point x="605" y="61" type="curve" smooth="yes"/>
      <point x="605" y="30"/>
      <point x="587" y="14"/>
      <point x="562" y="14" type="curve" smooth="yes"/>
      <point x="543" y="14"/>
      <point x="524" y="24"/>
      <point x="508" y="24" type="curve" smooth="yes"/>
      <point x="493" y="24"/>
      <point x="480" y="9"/>
      <point x="480" y="-9" type="curve" smooth="yes"/>
      <point x="480" y="-23"/>
      <point x="489" y="-34"/>
      <point x="505" y="-42" type="curve" smooth="yes"/>
      <point x="526" y="-53"/>
      <point x="554" y="-56"/>
    </contour>
    <contour>
      <point x="506" y="274" type="curve"/>
      <point x="463" y="308"/>
      <point x="429" y="343"/>
      <point x="429" y="382" type="curve" smooth="yes"/>
      <point x="429" y="423"/>
      <point x="449" y="442"/>
      <point x="478" y="442" type="curve" smooth="yes"/>
      <point x="509" y="442"/>
      <point x="527" y="419"/>
      <point x="527" y="382" type="curve" smooth="yes"/>
      <point x="527" y="354"/>
      <point x="520" y="315"/>
    </contour>
  </outline>
</glyph>
<glyph name="u1115B" format="2">
  <advance width="436"/>
  <unicode hex="1115B"/>
  <outline>
    <contour>
      <point x="52" y="-12" type="curve" smooth="yes"/>
      <point x="65" y="-12"/>
      <point x="107" y="-2"/>
      <point x="121" y="2" type="curve" smooth="yes"/>
      <point x="304" y="59"/>
      <point x="396" y="208"/>
      <point x="396" y="394" type="curve" smooth="yes"/>
      <point x="396" y="546"/>
      <point x="314" y="600"/>
      <point x="213" y="600" type="curve" smooth="yes"/>
      <point x="99" y="600"/>
      <point x="40" y="517"/>
      <point x="40" y="425" type="curve" smooth="yes"/>
      <point x="40" y="341"/>
      <point x="100" y="261"/>
      <point x="211" y="261" type="curve" smooth="yes"/>
      <point x="240" y="261"/>
      <point x="268" y="265"/>
      <point x="295" y="270" type="curve"/>
      <point x="258" y="150"/>
      <point x="166" y="84"/>
      <point x="38" y="52" type="curve" smooth="yes"/>
      <point x="21" y="48"/>
      <point x="15" y="31"/>
      <point x="15" y="18" type="curve" smooth="yes"/>
      <point x="15" y="-7"/>
      <point x="32" y="-12"/>
    </contour>
    <contour>
      <point x="227" y="341" type="curve" smooth="yes"/>
      <point x="155" y="341"/>
      <point x="124" y="388"/>
      <point x="124" y="431" type="curve" smooth="yes"/>
      <point x="124" y="473"/>
      <point x="150" y="520"/>
      <point x="215" y="520" type="curve" smooth="yes"/>
      <point x="273" y="520"/>
      <point x="312" y="487"/>
      <point x="312" y="398" type="curve" smooth="yes"/>
      <point x="312" y="385"/>
      <point x="311" y="372"/>
      <point x="310" y="360" type="curve"/>
      <point x="286" y="348"/>
      <point x="252" y="341"/>
    </contour>
  </outline>
</glyph>
<glyph name="u1115C" format="2">
  <advance width="644"/>
  <unicode hex="1115C"/>
  <outline>
    <contour>
      <point x="543" y="-41" type="curve" smooth="yes"/>
      <point x="562" y="-41"/>
      <point x="582" y="-28"/>
      <point x="582" y="-6" type="curve" smooth="yes"/>
      <point x="582" y="141"/>
      <point x="426" y="277"/>
      <point x="426" y="380" type="curve" smooth="yes"/>
      <point x="426" y="425"/>
      <point x="457" y="442"/>
      <point x="475" y="442" type="curve" smooth="yes"/>
      <point x="506" y="442"/>
      <point x="524" y="421"/>
      <point x="524" y="376" type="curve" smooth="yes"/>
      <point x="524" y="271"/>
      <point x="437" y="68"/>
      <point x="302" y="68" type="curve" smooth="yes"/>
      <point x="226" y="68"/>
      <point x="191" y="112"/>
      <point x="191" y="165" type="curve" smooth="yes"/>
      <point x="191" y="204"/>
      <point x="211" y="235"/>
      <point x="244" y="264" type="curve" smooth="yes"/>
      <point x="273" y="289"/>
      <point x="304" y="298"/>
      <point x="304" y="326" type="curve" smooth="yes"/>
      <point x="304" y="343"/>
      <point x="293" y="355"/>
      <point x="280" y="357" type="curve" smooth="yes"/>
      <point x="276" y="357"/>
      <point x="272" y="357"/>
      <point x="268" y="356" type="curve" smooth="yes"/>
      <point x="159" y="311"/>
      <point x="107" y="252"/>
      <point x="107" y="161" type="curve" smooth="yes"/>
      <point x="107" y="45"/>
      <point x="194" y="-12"/>
      <point x="296" y="-12" type="curve" smooth="yes"/>
      <point x="496" y="-12"/>
      <point x="604" y="242"/>
      <point x="604" y="377" type="curve" smooth="yes"/>
      <point x="604" y="443"/>
      <point x="571" y="520"/>
      <point x="474" y="520" type="curve" smooth="yes"/>
      <point x="389" y="520"/>
      <point x="346" y="456"/>
      <point x="346" y="384" type="curve" smooth="yes"/>
      <point x="346" y="227"/>
      <point x="502" y="132"/>
      <point x="505" y="-10" type="curve" smooth="yes"/>
      <point x="505" y="-29"/>
      <point x="521" y="-41"/>
    </contour>
    <contour>
      <point x="60" y="-105" type="curve" smooth="yes"/>
      <point x="74" y="-105"/>
      <point x="89" y="-99"/>
      <point x="99" y="-86" type="curve" smooth="yes"/>
      <point x="162" y="-7"/>
      <point x="191" y="97"/>
      <point x="191" y="158" type="curve"/>
      <point x="107" y="159" type="line"/>
      <point x="107" y="100"/>
      <point x="86" y="21"/>
      <point x="34" y="-41" type="curve" smooth="yes"/>
      <point x="27" y="-49"/>
      <point x="24" y="-60"/>
      <point x="24" y="-67" type="curve" smooth="yes"/>
      <point x="24" y="-89"/>
      <point x="40" y="-105"/>
    </contour>
    <contour>
      <point x="167" y="260" type="curve" smooth="yes"/>
      <point x="172" y="260"/>
      <point x="176" y="260"/>
      <point x="181" y="261" type="curve"/>
      <point x="257" y="351" type="line"/>
      <point x="237" y="341"/>
      <point x="214" y="335"/>
      <point x="192" y="335" type="curve" smooth="yes"/>
      <point x="155" y="335"/>
      <point x="124" y="364"/>
      <point x="124" y="403" type="curve" smooth="yes"/>
      <point x="124" y="456"/>
      <point x="165" y="507"/>
      <point x="252" y="532" type="curve" smooth="yes"/>
      <point x="274" y="538"/>
      <point x="278" y="552"/>
      <point x="278" y="566" type="curve" smooth="yes"/>
      <point x="278" y="583"/>
      <point x="269" y="600"/>
      <point x="248" y="600" type="curve" smooth="yes"/>
      <point x="242" y="600"/>
      <point x="231" y="598"/>
      <point x="222" y="596" type="curve" smooth="yes"/>
      <point x="113" y="568"/>
      <point x="40" y="497"/>
      <point x="40" y="402" type="curve" smooth="yes"/>
      <point x="40" y="316"/>
      <point x="103" y="260"/>
    </contour>
  </outline>
</glyph>
<glyph name="u1115D" format="2">
  <advance width="752"/>
  <unicode hex="1115D"/>
  <outline>
    <contour>
      <point x="392" y="23" type="curve" smooth="yes"/>
      <point x="560" y="23"/>
      <point x="712" y="103"/>
      <point x="712" y="271" type="curve" smooth="yes"/>
      <point x="712" y="400"/>
      <point x="624" y="474"/>
      <point x="520" y="474" type="curve" smooth="yes"/>
      <point x="491" y="474"/>
      <point x="463" y="469"/>
      <point x="435" y="459" type="curve"/>
      <point x="435" y="466" type="line" smooth="yes"/>
      <point x="435" y="543"/>
      <point x="395" y="600"/>
      <point x="307" y="600" type="curve" smooth="yes"/>
      <point x="259" y="600"/>
      <point x="222" y="582"/>
      <point x="200" y="565" type="curve" smooth="yes"/>
      <point x="182" y="551"/>
      <point x="174" y="537"/>
      <point x="174" y="525" type="curve" smooth="yes"/>
      <point x="174" y="508"/>
      <point x="184" y="497"/>
      <point x="203" y="497" type="curve" smooth="yes"/>
      <point x="207" y="497"/>
      <point x="214" y="498"/>
      <point x="222" y="502" type="curve" smooth="yes"/>
      <point x="242" y="513"/>
      <point x="271" y="522"/>
      <point x="294" y="522" type="curve" smooth="yes"/>
      <point x="336" y="522"/>
      <point x="352" y="497"/>
      <point x="352" y="457" type="curve" smooth="yes"/>
      <point x="352" y="434"/>
      <point x="336" y="405"/>
      <point x="312" y="377" type="curve" smooth="yes"/>
      <point x="303" y="367"/>
      <point x="297" y="357"/>
      <point x="297" y="347" type="curve" smooth="yes"/>
      <point x="297" y="330"/>
      <point x="312" y="318"/>
      <point x="330" y="318" type="curve" smooth="yes"/>
      <point x="351" y="318"/>
      <point x="370" y="340"/>
      <point x="382" y="350" type="curve" smooth="yes"/>
      <point x="401" y="366"/>
      <point x="437" y="394"/>
      <point x="514" y="394" type="curve" smooth="yes"/>
      <point x="569" y="394"/>
      <point x="628" y="362"/>
      <point x="628" y="274" type="curve" smooth="yes"/>
      <point x="628" y="151"/>
      <point x="516" y="103"/>
      <point x="389" y="103" type="curve" smooth="yes"/>
      <point x="228" y="103"/>
      <point x="106" y="179"/>
      <point x="75" y="199" type="curve" smooth="yes"/>
      <point x="55" y="212"/>
      <point x="42" y="227"/>
      <point x="22" y="227" type="curve" smooth="yes"/>
      <point x="2" y="227"/>
      <point x="-10" y="215"/>
      <point x="-10" y="198" type="curve" smooth="yes"/>
      <point x="-10" y="188"/>
      <point x="-8" y="179"/>
      <point x="2" y="167" type="curve" smooth="yes"/>
      <point x="12" y="156"/>
      <point x="26" y="148"/>
      <point x="42" y="136" type="curve" smooth="yes"/>
      <point x="104" y="90"/>
      <point x="212" y="23"/>
    </contour>
  </outline>
</glyph>
<glyph name="u1115E" format="2">
  <advance width="488"/>
  <unicode hex="1115E"/>
  <outline>
    <contour>
      <point x="268" y="-12" type="curve" smooth="yes"/>
      <point x="348" y="-12"/>
      <point x="420" y="26"/>
      <point x="458" y="78" type="curve" smooth="yes"/>
      <point x="463" y="85"/>
      <point x="468" y="95"/>
      <point x="468" y="103" type="curve" smooth="yes"/>
      <point x="468" y="125"/>
      <point x="453" y="141"/>
      <point x="435" y="141" type="curve" smooth="yes"/>
      <point x="424" y="141"/>
      <point x="417" y="135"/>
      <point x="411" y="128" type="curve" smooth="yes"/>
      <point x="382" y="95"/>
      <point x="323" y="68"/>
      <point x="276" y="68" type="curve" smooth="yes"/>
      <point x="184" y="68"/>
      <point x="150" y="135"/>
      <point x="150" y="193" type="curve" smooth="yes"/>
      <point x="150" y="264"/>
      <point x="200" y="334"/>
      <point x="292" y="334" type="curve" smooth="yes"/>
      <point x="313" y="334"/>
      <point x="327" y="331"/>
      <point x="344" y="331" type="curve" smooth="yes"/>
      <point x="363" y="331"/>
      <point x="384" y="337"/>
      <point x="384" y="367" type="curve" smooth="yes"/>
      <point x="384" y="396"/>
      <point x="350" y="411"/>
      <point x="294" y="411" type="curve" smooth="yes"/>
      <point x="250" y="411"/>
      <point x="212" y="402"/>
      <point x="180" y="385" type="curve"/>
      <point x="119" y="423"/>
      <point x="86" y="499"/>
      <point x="79" y="562" type="curve" smooth="yes"/>
      <point x="76" y="591"/>
      <point x="56" y="600"/>
      <point x="40" y="600" type="curve" smooth="yes"/>
      <point x="18" y="600"/>
      <point x="0" y="578"/>
      <point x="0" y="557" type="curve" smooth="yes"/>
      <point x="0" y="532"/>
      <point x="11" y="475"/>
      <point x="25" y="445" type="curve" smooth="yes"/>
      <point x="47" y="398"/>
      <point x="67" y="369"/>
      <point x="117" y="334" type="curve"/>
      <point x="83" y="293"/>
      <point x="66" y="241"/>
      <point x="66" y="188" type="curve" smooth="yes"/>
      <point x="66" y="62"/>
      <point x="157" y="-12"/>
    </contour>
  </outline>
</glyph>
<glyph name="u1115F" format="2">
  <advance width="463"/>
  <unicode hex="1115F"/>
  <outline>
    <contour>
      <point x="223" y="-12" type="curve" smooth="yes"/>
      <point x="307" y="-12"/>
      <point x="413" y="34"/>
      <point x="413" y="168" type="curve" smooth="yes"/>
      <point x="413" y="285"/>
      <point x="327" y="351"/>
      <point x="267" y="393" type="curve" smooth="yes"/>
      <point x="218" y="427"/>
      <point x="172" y="459"/>
      <point x="172" y="500" type="curve" smooth="yes"/>
      <point x="172" y="533"/>
      <point x="188" y="574"/>
      <point x="269" y="574" type="curve" smooth="yes"/>
      <point x="327" y="574"/>
      <point x="350" y="561"/>
      <point x="372" y="561" type="curve" smooth="yes"/>
      <point x="388" y="561"/>
      <point x="404" y="572"/>
      <point x="404" y="594" type="curve" smooth="yes"/>
      <point x="404" y="624"/>
      <point x="358" y="655"/>
      <point x="266" y="655" type="curve" smooth="yes"/>
      <point x="143" y="655"/>
      <point x="88" y="577"/>
      <point x="88" y="496" type="curve" smooth="yes"/>
      <point x="88" y="427"/>
      <point x="131" y="389"/>
      <point x="180" y="354" type="curve"/>
      <point x="89" y="298"/>
      <point x="50" y="239"/>
      <point x="50" y="163" type="curve" smooth="yes"/>
      <point x="50" y="69"/>
      <point x="116" y="-12"/>
    </contour>
    <contour>
      <point x="227" y="69" type="curve" smooth="yes"/>
      <point x="170" y="69"/>
      <point x="136" y="114"/>
      <point x="136" y="161" type="curve" smooth="yes"/>
      <point x="136" y="217"/>
      <point x="168" y="260"/>
      <point x="252" y="303" type="curve"/>
      <point x="248" y="306" type="line" smooth="yes"/>
      <point x="292" y="273"/>
      <point x="328" y="233"/>
      <point x="328" y="167" type="curve" smooth="yes"/>
      <point x="328" y="96"/>
      <point x="274" y="69"/>
    </contour>
  </outline>
</glyph>
<glyph name="u11160" format="2">
  <advance width="301"/>
  <unicode hex="11160"/>
  <outline>
    <contour>
      <point x="73" y="31" type="curve" smooth="yes"/>
      <point x="88" y="31"/>
      <point x="101" y="36"/>
      <point x="111" y="41" type="curve" smooth="yes"/>
      <point x="172" y="71"/>
      <point x="242" y="115"/>
      <point x="242" y="206" type="curve" smooth="yes"/>
      <point x="242" y="248"/>
      <point x="217" y="288"/>
      <point x="191" y="324" type="curve" smooth="yes"/>
      <point x="161" y="365"/>
      <point x="127" y="391"/>
      <point x="127" y="424" type="curve" smooth="yes"/>
      <point x="127" y="480"/>
      <point x="154" y="500"/>
      <point x="209" y="534" type="curve" smooth="yes"/>
      <point x="224" y="543"/>
      <point x="231" y="556"/>
      <point x="231" y="566" type="curve" smooth="yes"/>
      <point x="231" y="584"/>
      <point x="220" y="600"/>
      <point x="200" y="600" type="curve" smooth="yes"/>
      <point x="186" y="600"/>
      <point x="173" y="594"/>
      <point x="164" y="589" type="curve" smooth="yes"/>
      <point x="96" y="551"/>
      <point x="43" y="510"/>
      <point x="43" y="424" type="curve" smooth="yes"/>
      <point x="43" y="366"/>
      <point x="80" y="339"/>
      <point x="118" y="286" type="curve" smooth="yes"/>
      <point x="143" y="251"/>
      <point x="158" y="226"/>
      <point x="158" y="206" type="curve" smooth="yes"/>
      <point x="158" y="150"/>
      <point x="122" y="127"/>
      <point x="63" y="94" type="curve" smooth="yes"/>
      <point x="48" y="85"/>
      <point x="40" y="73"/>
      <point x="40" y="64" type="curve" smooth="yes"/>
      <point x="40" y="47"/>
      <point x="52" y="31"/>
    </contour>
  </outline>
</glyph>
<glyph name="u11161" format="2">
  <advance width="678"/>
  <unicode hex="11161"/>
  <outline>
    <contour>
      <point x="359" y="-12" type="curve" smooth="yes"/>
      <point x="500" y="-12"/>
      <point x="638" y="173"/>
      <point x="638" y="332" type="curve" smooth="yes"/>
      <point x="638" y="484"/>
      <point x="568" y="530"/>
      <point x="493" y="530" type="curve" smooth="yes"/>
      <point x="396" y="530"/>
      <point x="353" y="445"/>
      <point x="353" y="366" type="curve" smooth="yes"/>
      <point x="353" y="282"/>
      <point x="404" y="209"/>
      <point x="498" y="209" type="curve" smooth="yes"/>
      <point x="535" y="209"/>
      <point x="559" y="217"/>
      <point x="590" y="227" type="curve"/>
      <point x="590" y="321" type="line"/>
      <point x="571" y="304"/>
      <point x="542" y="292"/>
      <point x="515" y="292" type="curve" smooth="yes"/>
      <point x="454" y="292"/>
      <point x="436" y="329"/>
      <point x="436" y="372" type="curve" smooth="yes"/>
      <point x="436" y="427"/>
      <point x="466" y="448"/>
      <point x="493" y="448" type="curve" smooth="yes"/>
      <point x="533" y="448"/>
      <point x="554" y="416"/>
      <point x="554" y="328" type="curve" smooth="yes"/>
      <point x="554" y="170"/>
      <point x="417" y="68"/>
      <point x="365" y="68" type="curve" smooth="yes"/>
      <point x="315" y="68"/>
      <point x="242" y="144"/>
      <point x="223" y="304" type="curve" smooth="yes"/>
      <point x="205" y="452"/>
      <point x="176" y="520"/>
      <point x="68" y="571" type="curve" smooth="yes"/>
      <point x="55" y="577"/>
      <point x="43" y="580"/>
      <point x="34" y="580" type="curve" smooth="yes"/>
      <point x="9" y="580"/>
      <point x="0" y="559"/>
      <point x="0" y="533" type="curve" smooth="yes"/>
      <point x="0" y="523"/>
      <point x="12" y="511"/>
      <point x="23" y="507" type="curve" smooth="yes"/>
      <point x="109" y="472"/>
      <point x="129" y="412"/>
      <point x="140" y="302" type="curve" smooth="yes"/>
      <point x="155" y="147"/>
      <point x="235" y="-12"/>
    </contour>
  </outline>
</glyph>
<glyph name="u11162" format="2">
  <advance width="585"/>
  <unicode hex="11162"/>
  <outline>
    <contour>
      <point x="483" y="-12" type="curve" smooth="yes"/>
      <point x="504" y="-12"/>
      <point x="525" y="0"/>
      <point x="525" y="30" type="curve" smooth="yes"/>
      <point x="525" y="45"/>
      <point x="521" y="67"/>
      <point x="518" y="83" type="curve" smooth="yes"/>
      <point x="514" y="103"/>
      <point x="497" y="274"/>
      <point x="497" y="352" type="curve" smooth="yes"/>
      <point x="497" y="438"/>
      <point x="497" y="489"/>
      <point x="494" y="505" type="curve" smooth="yes"/>
      <point x="491" y="522"/>
      <point x="477" y="530"/>
      <point x="459" y="530" type="curve" smooth="yes"/>
      <point x="446" y="530"/>
      <point x="431" y="522"/>
      <point x="425" y="509" type="curve" smooth="yes"/>
      <point x="415" y="488"/>
      <point x="413" y="436"/>
      <point x="413" y="351" type="curve" smooth="yes"/>
      <point x="413" y="243"/>
      <point x="432" y="86"/>
      <point x="443" y="22" type="curve" smooth="yes"/>
      <point x="447" y="-1"/>
      <point x="468" y="-12"/>
    </contour>
    <contour>
      <point x="143" y="-12" type="curve" smooth="yes"/>
      <point x="164" y="-12"/>
      <point x="185" y="0"/>
      <point x="185" y="30" type="curve" smooth="yes"/>
      <point x="185" y="45"/>
      <point x="181" y="67"/>
      <point x="178" y="83" type="curve" smooth="yes"/>
      <point x="174" y="103"/>
      <point x="157" y="274"/>
      <point x="157" y="352" type="curve" smooth="yes"/>
      <point x="157" y="438"/>
      <point x="157" y="489"/>
      <point x="154" y="505" type="curve" smooth="yes"/>
      <point x="151" y="522"/>
      <point x="137" y="530"/>
      <point x="119" y="530" type="curve" smooth="yes"/>
      <point x="106" y="530"/>
      <point x="91" y="522"/>
      <point x="85" y="509" type="curve" smooth="yes"/>
      <point x="76" y="488"/>
      <point x="73" y="436"/>
      <point x="73" y="351" type="curve" smooth="yes"/>
      <point x="73" y="243"/>
      <point x="93" y="86"/>
      <point x="103" y="22" type="curve" smooth="yes"/>
      <point x="107" y="-1"/>
      <point x="128" y="-12"/>
    </contour>
    <contour>
      <point x="313" y="-12" type="curve" smooth="yes"/>
      <point x="334" y="-12"/>
      <point x="355" y="0"/>
      <point x="355" y="30" type="curve" smooth="yes"/>
      <point x="355" y="45"/>
      <point x="351" y="67"/>
      <point x="348" y="83" type="curve" smooth="yes"/>
      <point x="344" y="103"/>
      <point x="327" y="274"/>
      <point x="327" y="352" type="curve" smooth="yes"/>
      <point x="327" y="438"/>
      <point x="327" y="489"/>
      <point x="324" y="505" type="curve" smooth="yes"/>
      <point x="321" y="522"/>
      <point x="307" y="530"/>
      <point x="289" y="530" type="curve" smooth="yes"/>
      <point x="276" y="530"/>
      <point x="261" y="522"/>
      <point x="255" y="509" type="curve" smooth="yes"/>
      <point x="245" y="488"/>
      <point x="243" y="436"/>
      <point x="243" y="351" type="curve" smooth="yes"/>
      <point x="243" y="243"/>
      <point x="262" y="86"/>
      <point x="273" y="22" type="curve" smooth="yes"/>
      <point x="277" y="-1"/>
      <point x="298" y="-12"/>
    </contour>
  </outline>
</glyph>
<glyph name="u11163" format="2">
  <advance width="584"/>
  <unicode hex="11163"/>
  <outline>
    <contour>
      <point x="414" y="53" type="curve" smooth="yes"/>
      <point x="450" y="53"/>
      <point x="487" y="69"/>
      <point x="525" y="121" type="curve" smooth="yes"/>
      <point x="551" y="156" type="line" smooth="yes"/>
      <point x="561" y="169"/>
      <point x="564" y="182"/>
      <point x="564" y="192" type="curve" smooth="yes"/>
      <point x="564" y="213"/>
      <point x="548" y="227"/>
      <point x="533" y="227" type="curve" smooth="yes"/>
      <point x="520" y="227"/>
      <point x="503" y="219"/>
      <point x="490" y="201" type="curve" smooth="yes"/>
      <point x="479" y="186" type="line" smooth="yes"/>
      <point x="475" y="180"/>
      <point x="444" y="136"/>
      <point x="412" y="136" type="curve" smooth="yes"/>
      <point x="389" y="136"/>
      <point x="360" y="174"/>
      <point x="321" y="194" type="curve"/>
      <point x="356" y="236"/>
      <point x="376" y="287"/>
      <point x="376" y="344" type="curve" smooth="yes"/>
      <point x="376" y="459"/>
      <point x="292" y="530"/>
      <point x="173" y="530" type="curve" smooth="yes"/>
      <point x="126" y="530"/>
      <point x="82" y="519"/>
      <point x="44" y="497" type="curve" smooth="yes"/>
      <point x="27" y="487"/>
      <point x="20" y="474"/>
      <point x="20" y="461" type="curve" smooth="yes"/>
      <point x="20" y="442"/>
      <point x="35" y="428"/>
      <point x="57" y="428" type="curve" smooth="yes"/>
      <point x="61" y="428"/>
      <point x="66" y="429"/>
      <point x="71" y="431" type="curve" smooth="yes"/>
      <point x="104" y="445"/>
      <point x="139" y="454"/>
      <point x="172" y="454" type="curve" smooth="yes"/>
      <point x="234" y="454"/>
      <point x="296" y="425"/>
      <point x="296" y="336" type="curve" smooth="yes"/>
      <point x="296" y="236"/>
      <point x="188" y="177"/>
      <point x="134" y="159" type="curve" smooth="yes"/>
      <point x="122" y="155"/>
      <point x="115" y="138"/>
      <point x="115" y="129" type="curve" smooth="yes"/>
      <point x="115" y="98"/>
      <point x="132" y="90"/>
      <point x="152" y="90" type="curve" smooth="yes"/>
      <point x="162" y="90"/>
      <point x="173" y="92"/>
      <point x="184" y="97" type="curve" smooth="yes"/>
      <point x="204" y="106"/>
      <point x="223" y="115"/>
      <point x="241" y="126" type="curve"/>
      <point x="249" y="128"/>
      <point x="257" y="129"/>
      <point x="264" y="129" type="curve" smooth="yes"/>
      <point x="323" y="129"/>
      <point x="350" y="53"/>
    </contour>
  </outline>
</glyph>
<glyph name="u11164" format="2">
  <advance width="723"/>
  <unicode hex="11164"/>
  <outline>
    <contour>
      <point x="168" y="178" type="curve" smooth="yes"/>
      <point x="220" y="178"/>
      <point x="278" y="213"/>
      <point x="278" y="288" type="curve" smooth="yes"/>
      <point x="278" y="330"/>
      <point x="265" y="392"/>
      <point x="188" y="443" type="curve"/>
      <point x="201" y="448"/>
      <point x="214" y="450"/>
      <point x="225" y="450" type="curve" smooth="yes"/>
      <point x="307" y="450"/>
      <point x="335" y="412"/>
      <point x="343" y="358" type="curve" smooth="yes"/>
      <point x="347" y="332"/>
      <point x="355" y="314"/>
      <point x="379" y="314" type="curve" smooth="yes"/>
      <point x="395" y="314"/>
      <point x="407" y="323"/>
      <point x="415" y="344" type="curve" smooth="yes"/>
      <point x="444" y="423"/>
      <point x="481" y="450"/>
      <point x="529" y="450" type="curve" smooth="yes"/>
      <point x="579" y="450"/>
      <point x="599" y="410"/>
      <point x="599" y="361" type="curve" smooth="yes"/>
      <point x="599" y="321"/>
      <point x="581" y="257"/>
      <point x="562" y="233" type="curve" smooth="yes"/>
      <point x="555" y="224"/>
      <point x="552" y="216"/>
      <point x="552" y="208" type="curve" smooth="yes"/>
      <point x="552" y="190"/>
      <point x="569" y="178"/>
      <point x="589" y="178" type="curve" smooth="yes"/>
      <point x="609" y="178"/>
      <point x="623" y="189"/>
      <point x="633" y="200" type="curve" smooth="yes"/>
      <point x="661" y="231"/>
      <point x="683" y="313"/>
      <point x="683" y="365" type="curve" smooth="yes"/>
      <point x="683" y="455"/>
      <point x="631" y="530"/>
      <point x="528" y="530" type="curve" smooth="yes"/>
      <point x="475" y="530"/>
      <point x="424" y="505"/>
      <point x="385" y="456" type="curve"/>
      <point x="356" y="500"/>
      <point x="306" y="530"/>
      <point x="227" y="530" type="curve" smooth="yes"/>
      <point x="102" y="530"/>
      <point x="40" y="427"/>
      <point x="40" y="340" type="curve" smooth="yes"/>
      <point x="40" y="242"/>
      <point x="98" y="178"/>
    </contour>
    <contour>
      <point x="170" y="255" type="curve" smooth="yes"/>
      <point x="144" y="255"/>
      <point x="118" y="286"/>
      <point x="118" y="347" type="curve" smooth="yes"/>
      <point x="118" y="364"/>
      <point x="122" y="379"/>
      <point x="128" y="392" type="curve"/>
      <point x="177" y="362"/>
      <point x="200" y="316"/>
      <point x="200" y="288" type="curve" smooth="yes"/>
      <point x="200" y="268"/>
      <point x="185" y="255"/>
    </contour>
  </outline>
</glyph>
<glyph name="u11165" format="2">
  <advance width="506"/>
  <unicode hex="11165"/>
  <outline>
    <contour>
      <point x="296" y="-12" type="curve" smooth="yes"/>
      <point x="370" y="-12"/>
      <point x="433" y="14"/>
      <point x="475" y="71" type="curve" smooth="yes"/>
      <point x="481" y="79"/>
      <point x="486" y="90"/>
      <point x="486" y="98" type="curve" smooth="yes"/>
      <point x="486" y="122"/>
      <point x="469" y="140"/>
      <point x="449" y="140" type="curve" smooth="yes"/>
      <point x="440" y="140"/>
      <point x="430" y="134"/>
      <point x="423" y="126" type="curve" smooth="yes"/>
      <point x="391" y="90"/>
      <point x="349" y="68"/>
      <point x="302" y="68" type="curve" smooth="yes"/>
      <point x="226" y="68"/>
      <point x="191" y="117"/>
      <point x="191" y="163" type="curve" smooth="yes"/>
      <point x="191" y="209"/>
      <point x="211" y="235"/>
      <point x="244" y="264" type="curve" smooth="yes"/>
      <point x="273" y="289"/>
      <point x="304" y="299"/>
      <point x="304" y="327" type="curve" smooth="yes"/>
      <point x="304" y="344"/>
      <point x="290" y="357"/>
      <point x="279" y="357" type="curve" smooth="yes"/>
      <point x="274" y="357"/>
      <point x="271" y="357"/>
      <point x="263" y="354" type="curve" smooth="yes"/>
      <point x="245" y="348"/>
      <point x="233" y="335"/>
      <point x="192" y="335" type="curve" smooth="yes"/>
      <point x="155" y="335"/>
      <point x="124" y="357"/>
      <point x="124" y="396" type="curve" smooth="yes"/>
      <point x="124" y="449"/>
      <point x="165" y="508"/>
      <point x="252" y="533" type="curve" smooth="yes"/>
      <point x="274" y="539"/>
      <point x="278" y="553"/>
      <point x="278" y="567" type="curve" smooth="yes"/>
      <point x="278" y="584"/>
      <point x="269" y="601"/>
      <point x="248" y="601" type="curve" smooth="yes"/>
      <point x="242" y="601"/>
      <point x="231" y="599"/>
      <point x="222" y="597" type="curve" smooth="yes"/>
      <point x="113" y="569"/>
      <point x="40" y="492"/>
      <point x="40" y="397" type="curve" smooth="yes"/>
      <point x="40" y="327"/>
      <point x="88" y="277"/>
      <point x="140" y="263" type="curve"/>
      <point x="118" y="232"/>
      <point x="107" y="198"/>
      <point x="107" y="161" type="curve" smooth="yes"/>
      <point x="107" y="45"/>
      <point x="194" y="-12"/>
    </contour>
  </outline>
</glyph>
<glyph name="u11166" format="2">
  <advance width="897"/>
  <unicode hex="11166"/>
  <outline>
    <contour>
      <point x="166" y="100" type="curve" smooth="yes"/>
      <point x="178" y="100"/>
      <point x="207" y="114"/>
      <point x="216" y="119" type="curve" smooth="yes"/>
      <point x="302" y="162"/>
      <point x="378" y="206"/>
      <point x="453" y="260" type="curve"/>
      <point x="455" y="183"/>
      <point x="507" y="105"/>
      <point x="618" y="105" type="curve" smooth="yes"/>
      <point x="724" y="105"/>
      <point x="826" y="192"/>
      <point x="851" y="228" type="curve" smooth="yes"/>
      <point x="867" y="251"/>
      <point x="867" y="259"/>
      <point x="867" y="271" type="curve" smooth="yes"/>
      <point x="867" y="286"/>
      <point x="861" y="298"/>
      <point x="840" y="298" type="curve" smooth="yes"/>
      <point x="832" y="298"/>
      <point x="821" y="293"/>
      <point x="811" y="285" type="curve" smooth="yes"/>
      <point x="794" y="272"/>
      <point x="706" y="185"/>
      <point x="624" y="185" type="curve" smooth="yes"/>
      <point x="567" y="185"/>
      <point x="537" y="221"/>
      <point x="537" y="271" type="curve" smooth="yes"/>
      <point x="537" y="326"/>
      <point x="593" y="403"/>
      <point x="666" y="445" type="curve" smooth="yes"/>
      <point x="681" y="454"/>
      <point x="699" y="473"/>
      <point x="699" y="490" type="curve" smooth="yes"/>
      <point x="699" y="511"/>
      <point x="688" y="530"/>
      <point x="664" y="530" type="curve" smooth="yes"/>
      <point x="652" y="530"/>
      <point x="633" y="520"/>
      <point x="625" y="515" type="curve" smooth="yes"/>
      <point x="583" y="488"/>
      <point x="544" y="460"/>
      <point x="513" y="423" type="curve"/>
      <point x="469" y="382"/>
      <point x="425" y="345"/>
      <point x="380" y="313" type="curve"/>
      <point x="384" y="329"/>
      <point x="386" y="346"/>
      <point x="386" y="364" type="curve" smooth="yes"/>
      <point x="386" y="443"/>
      <point x="327" y="530"/>
      <point x="213" y="530" type="curve" smooth="yes"/>
      <point x="136" y="530"/>
      <point x="70" y="490"/>
      <point x="44" y="456" type="curve" smooth="yes"/>
      <point x="31" y="439"/>
      <point x="30" y="429"/>
      <point x="30" y="416" type="curve" smooth="yes"/>
      <point x="30" y="398"/>
      <point x="42" y="384"/>
      <point x="63" y="384" type="curve" smooth="yes"/>
      <point x="71" y="384"/>
      <point x="80" y="389"/>
      <point x="91" y="397" type="curve" smooth="yes"/>
      <point x="107" y="408"/>
      <point x="147" y="449"/>
      <point x="214" y="449" type="curve" smooth="yes"/>
      <point x="282" y="449"/>
      <point x="302" y="399"/>
      <point x="302" y="348" type="curve" smooth="yes"/>
      <point x="302" y="276"/>
      <point x="239" y="220"/>
      <point x="164" y="177" type="curve" smooth="yes"/>
      <point x="147" y="167"/>
      <point x="131" y="150"/>
      <point x="131" y="132" type="curve" smooth="yes"/>
      <point x="131" y="110"/>
      <point x="142" y="100"/>
    </contour>
  </outline>
</glyph>
<glyph name="u11167" format="2">
  <advance width="687"/>
  <unicode hex="11167"/>
  <outline>
    <contour>
      <point x="213" y="50" type="curve" smooth="yes"/>
      <point x="327" y="50"/>
      <point x="373" y="144"/>
      <point x="373" y="223" type="curve" smooth="yes"/>
      <point x="373" y="321"/>
      <point x="302" y="383"/>
      <point x="200" y="383" type="curve" smooth="yes"/>
      <point x="191" y="383"/>
      <point x="181" y="382"/>
      <point x="172" y="381" type="curve"/>
      <point x="211" y="424"/>
      <point x="274" y="450"/>
      <point x="348" y="450" type="curve" smooth="yes"/>
      <point x="440" y="450"/>
      <point x="553" y="409"/>
      <point x="553" y="274" type="curve" smooth="yes"/>
      <point x="553" y="199"/>
      <point x="511" y="137"/>
      <point x="461" y="119" type="curve" smooth="yes"/>
      <point x="436" y="110"/>
      <point x="426" y="94"/>
      <point x="426" y="80" type="curve" smooth="yes"/>
      <point x="426" y="62"/>
      <point x="437" y="50"/>
      <point x="462" y="50" type="curve" smooth="yes"/>
      <point x="469" y="50"/>
      <point x="477" y="51"/>
      <point x="486" y="54" type="curve" smooth="yes"/>
      <point x="571" y="78"/>
      <point x="637" y="158"/>
      <point x="637" y="275" type="curve" smooth="yes"/>
      <point x="637" y="427"/>
      <point x="519" y="530"/>
      <point x="347" y="530" type="curve" smooth="yes"/>
      <point x="148" y="530"/>
      <point x="40" y="385"/>
      <point x="40" y="258" type="curve" smooth="yes"/>
      <point x="40" y="106"/>
      <point x="133" y="50"/>
    </contour>
    <contour>
      <point x="210" y="130" type="curve" smooth="yes"/>
      <point x="170" y="130"/>
      <point x="128" y="164"/>
      <point x="128" y="264" type="curve" smooth="yes"/>
      <point x="128" y="273"/>
      <point x="129" y="282"/>
      <point x="130" y="290" type="curve"/>
      <point x="151" y="298"/>
      <point x="173" y="303"/>
      <point x="195" y="303" type="curve" smooth="yes"/>
      <point x="245" y="303"/>
      <point x="289" y="277"/>
      <point x="289" y="217" type="curve" smooth="yes"/>
      <point x="289" y="175"/>
      <point x="261" y="130"/>
    </contour>
  </outline>
</glyph>
<glyph name="u11168" format="2">
  <advance width="561"/>
  <unicode hex="11168"/>
  <outline>
    <contour>
      <point x="507" y="-12" type="curve" smooth="yes"/>
      <point x="528" y="-12"/>
      <point x="541" y="4"/>
      <point x="541" y="27" type="curve" smooth="yes"/>
      <point x="541" y="40"/>
      <point x="534" y="53"/>
      <point x="523" y="72" type="curve" smooth="yes"/>
      <point x="481" y="142"/>
      <point x="471" y="228"/>
      <point x="471" y="313" type="curve" smooth="yes"/>
      <point x="471" y="350"/>
      <point x="483" y="397"/>
      <point x="483" y="437" type="curve" smooth="yes"/>
      <point x="483" y="488"/>
      <point x="466" y="530"/>
      <point x="408" y="530" type="curve" smooth="yes"/>
      <point x="380" y="530"/>
      <point x="351" y="522"/>
      <point x="313" y="479" type="curve" smooth="yes"/>
      <point x="284" y="447"/>
      <point x="233" y="370"/>
      <point x="178" y="286" type="curve"/>
      <point x="162" y="364"/>
      <point x="138" y="447"/>
      <point x="108" y="507" type="curve" smooth="yes"/>
      <point x="76" y="571"/>
      <point x="53" y="580"/>
      <point x="31" y="580" type="curve" smooth="yes"/>
      <point x="21" y="580"/>
      <point x="0" y="575"/>
      <point x="0" y="550" type="curve" smooth="yes"/>
      <point x="0" y="535"/>
      <point x="8" y="517"/>
      <point x="29" y="471" type="curve" smooth="yes"/>
      <point x="73" y="377"/>
      <point x="102" y="246"/>
      <point x="115" y="171" type="curve" smooth="yes"/>
      <point x="119" y="148"/>
      <point x="135" y="136"/>
      <point x="153" y="136" type="curve" smooth="yes"/>
      <point x="167" y="136"/>
      <point x="178" y="141"/>
      <point x="192" y="162" type="curve" smooth="yes"/>
      <point x="215" y="197"/>
      <point x="243" y="243"/>
      <point x="272" y="289" type="curve" smooth="yes"/>
      <point x="297" y="328"/>
      <point x="322" y="365"/>
      <point x="348" y="399" type="curve" smooth="yes"/>
      <point x="365" y="421"/>
      <point x="375" y="430"/>
      <point x="381" y="430" type="curve" smooth="yes"/>
      <point x="385" y="430"/>
      <point x="399" y="430"/>
      <point x="399" y="414" type="curve" smooth="yes"/>
      <point x="399" y="412"/>
      <point x="399" y="409"/>
      <point x="398" y="406" type="curve" smooth="yes"/>
      <point x="393" y="383"/>
      <point x="387" y="332"/>
      <point x="387" y="295" type="curve" smooth="yes"/>
      <point x="387" y="189"/>
      <point x="424" y="66"/>
      <point x="461" y="17" type="curve" smooth="yes"/>
      <point x="473" y="1"/>
      <point x="489" y="-12"/>
    </contour>
  </outline>
</glyph>
<glyph name="u11169" format="2">
  <advance width="724"/>
  <unicode hex="11169"/>
  <outline>
    <contour>
      <point x="168" y="178" type="curve" smooth="yes"/>
      <point x="241" y="178"/>
      <point x="277" y="229"/>
      <point x="277" y="307" type="curve" smooth="yes"/>
      <point x="277" y="343"/>
      <point x="268" y="392"/>
      <point x="238" y="450" type="curve"/>
      <point x="305" y="447"/>
      <point x="333" y="414"/>
      <point x="345" y="347" type="curve" smooth="yes"/>
      <point x="348" y="330"/>
      <point x="359" y="318"/>
      <point x="379" y="318" type="curve" smooth="yes"/>
      <point x="395" y="318"/>
      <point x="409" y="326"/>
      <point x="417" y="347" type="curve" smooth="yes"/>
      <point x="446" y="426"/>
      <point x="482" y="450"/>
      <point x="530" y="450" type="curve" smooth="yes"/>
      <point x="580" y="450"/>
      <point x="600" y="410"/>
      <point x="600" y="361" type="curve" smooth="yes"/>
      <point x="600" y="321"/>
      <point x="582" y="257"/>
      <point x="563" y="233" type="curve" smooth="yes"/>
      <point x="556" y="224"/>
      <point x="553" y="216"/>
      <point x="553" y="208" type="curve" smooth="yes"/>
      <point x="553" y="190"/>
      <point x="570" y="178"/>
      <point x="590" y="178" type="curve" smooth="yes"/>
      <point x="610" y="178"/>
      <point x="624" y="189"/>
      <point x="634" y="200" type="curve" smooth="yes"/>
      <point x="662" y="231"/>
      <point x="684" y="313"/>
      <point x="684" y="365" type="curve" smooth="yes"/>
      <point x="684" y="455"/>
      <point x="632" y="530"/>
      <point x="529" y="530" type="curve" smooth="yes"/>
      <point x="474" y="530"/>
      <point x="422" y="506"/>
      <point x="384" y="455" type="curve"/>
      <point x="353" y="500"/>
      <point x="305" y="530"/>
      <point x="234" y="530" type="curve" smooth="yes"/>
      <point x="218" y="530"/>
      <point x="204" y="528"/>
      <point x="191" y="525" type="curve"/>
      <point x="171" y="552"/>
      <point x="147" y="580"/>
      <point x="118" y="609" type="curve" smooth="yes"/>
      <point x="83" y="644"/>
      <point x="60" y="655"/>
      <point x="49" y="655" type="curve" smooth="yes"/>
      <point x="37" y="655"/>
      <point x="16" y="649"/>
      <point x="16" y="629" type="curve" smooth="yes"/>
      <point x="16" y="615"/>
      <point x="26" y="593"/>
      <point x="58" y="563" type="curve" smooth="yes"/>
      <point x="81" y="541"/>
      <point x="101" y="518"/>
      <point x="119" y="495" type="curve"/>
      <point x="65" y="456"/>
      <point x="40" y="392"/>
      <point x="40" y="336" type="curve" smooth="yes"/>
      <point x="40" y="238"/>
      <point x="98" y="178"/>
    </contour>
    <contour>
      <point x="170" y="255" type="curve" smooth="yes"/>
      <point x="144" y="255"/>
      <point x="118" y="291"/>
      <point x="118" y="342" type="curve" smooth="yes"/>
      <point x="118" y="382"/>
      <point x="136" y="410"/>
      <point x="161" y="428" type="curve"/>
      <point x="186" y="381"/>
      <point x="198" y="337"/>
      <point x="198" y="303" type="curve" smooth="yes"/>
      <point x="198" y="269"/>
      <point x="185" y="255"/>
    </contour>
  </outline>
</glyph>
<glyph name="u1116B" format="2">
  <advance width="449"/>
  <unicode hex="1116B"/>
  <outline>
    <contour>
      <point x="267" y="-11" type="curve" smooth="yes"/>
      <point x="341" y="-11"/>
      <point x="389" y="14"/>
      <point x="419" y="53" type="curve" smooth="yes"/>
      <point x="425" y="61"/>
      <point x="430" y="72"/>
      <point x="430" y="80" type="curve" smooth="yes"/>
      <point x="430" y="104"/>
      <point x="413" y="122"/>
      <point x="393" y="122" type="curve" smooth="yes"/>
      <point x="384" y="122"/>
      <point x="374" y="116"/>
      <point x="367" y="108" type="curve" smooth="yes"/>
      <point x="350" y="89"/>
      <point x="322" y="69"/>
      <point x="270" y="69" type="curve" smooth="yes"/>
      <point x="214" y="69"/>
      <point x="148" y="106"/>
      <point x="130" y="219" type="curve"/>
      <point x="153" y="213"/>
      <point x="176" y="210"/>
      <point x="206" y="210" type="curve" smooth="yes"/>
      <point x="317" y="210"/>
      <point x="369" y="290"/>
      <point x="369" y="374" type="curve" smooth="yes"/>
      <point x="369" y="453"/>
      <point x="326" y="531"/>
      <point x="224" y="531" type="curve" smooth="yes"/>
      <point x="124" y="531"/>
      <point x="41" y="438"/>
      <point x="41" y="286" type="curve" smooth="yes"/>
      <point x="41" y="80"/>
      <point x="143" y="-11"/>
    </contour>
    <contour>
      <point x="190" y="290" type="curve" smooth="yes"/>
      <point x="168" y="290"/>
      <point x="145" y="295"/>
      <point x="126" y="304" type="curve"/>
      <point x="132" y="394"/>
      <point x="177" y="451"/>
      <point x="221" y="451" type="curve" smooth="yes"/>
      <point x="263" y="451"/>
      <point x="285" y="422"/>
      <point x="285" y="380" type="curve" smooth="yes"/>
      <point x="285" y="337"/>
      <point x="262" y="290"/>
    </contour>
  </outline>
</glyph>
<glyph name="u1116C" format="2">
  <advance width="598"/>
  <unicode hex="1116C"/>
  <outline>
    <contour>
      <point x="139" y="-12" type="curve" smooth="yes"/>
      <point x="173" y="-12"/>
      <point x="185" y="20"/>
      <point x="192" y="61" type="curve" smooth="yes"/>
      <point x="215" y="191" type="line" smooth="yes"/>
      <point x="238" y="322"/>
      <point x="302" y="450"/>
      <point x="397" y="450" type="curve" smooth="yes"/>
      <point x="443" y="450"/>
      <point x="464" y="424"/>
      <point x="464" y="349" type="curve" smooth="yes"/>
      <point x="464" y="279"/>
      <point x="443" y="150"/>
      <point x="432" y="91" type="curve" smooth="yes"/>
      <point x="427" y="63"/>
      <point x="425" y="40"/>
      <point x="425" y="26" type="curve" smooth="yes"/>
      <point x="425" y="0"/>
      <point x="439" y="-12"/>
      <point x="455" y="-12" type="curve" smooth="yes"/>
      <point x="492" y="-12"/>
      <point x="504" y="7"/>
      <point x="516" y="78" type="curve" smooth="yes"/>
      <point x="526" y="136"/>
      <point x="548" y="271"/>
      <point x="548" y="364" type="curve" smooth="yes"/>
      <point x="548" y="452"/>
      <point x="506" y="530"/>
      <point x="403" y="530" type="curve" smooth="yes"/>
      <point x="302" y="530"/>
      <point x="233" y="468"/>
      <point x="189" y="376" type="curve"/>
      <point x="172" y="437"/>
      <point x="139" y="493"/>
      <point x="77" y="547" type="curve" smooth="yes"/>
      <point x="70" y="553"/>
      <point x="58" y="555"/>
      <point x="51" y="555" type="curve" smooth="yes"/>
      <point x="26" y="555"/>
      <point x="10" y="542"/>
      <point x="10" y="521" type="curve" smooth="yes"/>
      <point x="10" y="511"/>
      <point x="14" y="498"/>
      <point x="23" y="488" type="curve" smooth="yes"/>
      <point x="87" y="422"/>
      <point x="127" y="355"/>
      <point x="127" y="197" type="curve" smooth="yes"/>
      <point x="127" y="173"/>
      <point x="125" y="150"/>
      <point x="120" y="125" type="curve" smooth="yes"/>
      <point x="110" y="74" type="line" smooth="yes"/>
      <point x="107" y="60"/>
      <point x="105" y="42"/>
      <point x="105" y="33" type="curve" smooth="yes"/>
      <point x="105" y="10"/>
      <point x="113" y="-12"/>
    </contour>
  </outline>
</glyph>
<glyph name="u1116D" format="2">
  <advance width="472"/>
  <unicode hex="1116D"/>
  <outline>
    <contour>
      <point x="189" y="98" type="curve" smooth="yes"/>
      <point x="202" y="98"/>
      <point x="227" y="103"/>
      <point x="238" y="106" type="curve" smooth="yes"/>
      <point x="380" y="146"/>
      <point x="438" y="249"/>
      <point x="438" y="343" type="curve" smooth="yes"/>
      <point x="438" y="442"/>
      <point x="377" y="530"/>
      <point x="240" y="530" type="curve" smooth="yes"/>
      <point x="147" y="530"/>
      <point x="72" y="483"/>
      <point x="44" y="452" type="curve" smooth="yes"/>
      <point x="26" y="432"/>
      <point x="26" y="422"/>
      <point x="26" y="411" type="curve" smooth="yes"/>
      <point x="26" y="394"/>
      <point x="41" y="385"/>
      <point x="55" y="385" type="curve" smooth="yes"/>
      <point x="62" y="385"/>
      <point x="74" y="390"/>
      <point x="85" y="397" type="curve" smooth="yes"/>
      <point x="124" y="423"/>
      <point x="166" y="451"/>
      <point x="239" y="451" type="curve" smooth="yes"/>
      <point x="317" y="451"/>
      <point x="354" y="407"/>
      <point x="354" y="334" type="curve" smooth="yes"/>
      <point x="354" y="270"/>
      <point x="315" y="208"/>
      <point x="196" y="175" type="curve" smooth="yes"/>
      <point x="176" y="169"/>
      <point x="156" y="154"/>
      <point x="156" y="139" type="curve" smooth="yes"/>
      <point x="156" y="121"/>
      <point x="167" y="98"/>
    </contour>
  </outline>
</glyph>
<glyph name="u1116E" format="2">
  <advance width="693"/>
  <unicode hex="1116E"/>
  <outline>
    <contour>
      <point x="501" y="159" type="curve" smooth="yes"/>
      <point x="509" y="159"/>
      <point x="524" y="166"/>
      <point x="533" y="171" type="curve" smooth="yes"/>
      <point x="624" y="226"/>
      <point x="653" y="280"/>
      <point x="653" y="366" type="curve" smooth="yes"/>
      <point x="653" y="456"/>
      <point x="591" y="531"/>
      <point x="493" y="531" type="curve" smooth="yes"/>
      <point x="435" y="531"/>
      <point x="385" y="507"/>
      <point x="348" y="458" type="curve"/>
      <point x="317" y="502"/>
      <point x="271" y="531"/>
      <point x="205" y="531" type="curve" smooth="yes"/>
      <point x="107" y="531"/>
      <point x="40" y="456"/>
      <point x="40" y="366" type="curve" smooth="yes"/>
      <point x="40" y="280"/>
      <point x="78" y="209"/>
      <point x="166" y="175" type="curve" smooth="yes"/>
      <point x="175" y="171"/>
      <point x="184" y="169"/>
      <point x="192" y="169" type="curve" smooth="yes"/>
      <point x="216" y="169"/>
      <point x="231" y="184"/>
      <point x="231" y="202" type="curve" smooth="yes"/>
      <point x="231" y="212"/>
      <point x="227" y="227"/>
      <point x="214" y="234" type="curve" smooth="yes"/>
      <point x="174" y="255"/>
      <point x="124" y="291"/>
      <point x="124" y="362" type="curve" smooth="yes"/>
      <point x="124" y="411"/>
      <point x="159" y="451"/>
      <point x="209" y="451" type="curve" smooth="yes"/>
      <point x="256" y="451"/>
      <point x="293" y="421"/>
      <point x="308" y="354" type="curve" smooth="yes"/>
      <point x="313" y="331"/>
      <point x="323" y="319"/>
      <point x="345" y="319" type="curve" smooth="yes"/>
      <point x="361" y="319"/>
      <point x="375" y="327"/>
      <point x="383" y="348" type="curve" smooth="yes"/>
      <point x="412" y="427"/>
      <point x="441" y="451"/>
      <point x="489" y="451" type="curve" smooth="yes"/>
      <point x="539" y="451"/>
      <point x="569" y="411"/>
      <point x="569" y="362" type="curve" smooth="yes"/>
      <point x="569" y="291"/>
      <point x="519" y="255"/>
      <point x="479" y="234" type="curve" smooth="yes"/>
      <point x="466" y="227"/>
      <point x="462" y="212"/>
      <point x="462" y="202" type="curve" smooth="yes"/>
      <point x="462" y="184"/>
      <point x="477" y="159"/>
    </contour>
  </outline>
</glyph>
<glyph name="u1116F" format="2">
  <advance width="542"/>
  <unicode hex="1116F"/>
  <outline>
    <contour>
      <point x="518" y="-14" type="curve" smooth="yes"/>
      <point x="548" y="-14"/>
      <point x="562" y="0"/>
      <point x="562" y="19" type="curve" smooth="yes"/>
      <point x="562" y="35"/>
      <point x="556" y="49"/>
      <point x="541" y="53" type="curve" smooth="yes"/>
      <point x="442" y="81"/>
      <point x="408" y="120"/>
      <point x="408" y="210" type="curve" smooth="yes"/>
      <point x="408" y="284"/>
      <point x="454" y="436"/>
      <point x="463" y="464" type="curve" smooth="yes"/>
      <point x="466" y="475"/>
      <point x="467" y="483"/>
      <point x="467" y="491" type="curve" smooth="yes"/>
      <point x="467" y="523"/>
      <point x="445" y="530"/>
      <point x="428" y="530" type="curve" smooth="yes"/>
      <point x="409" y="530"/>
      <point x="394" y="516"/>
      <point x="385" y="480" type="curve" smooth="yes"/>
      <point x="369" y="419" type="line" smooth="yes"/>
      <point x="360" y="383"/>
      <point x="347" y="330"/>
      <point x="337" y="280" type="curve"/>
      <point x="305" y="218"/>
      <point x="241" y="200"/>
      <point x="203" y="200" type="curve" smooth="yes"/>
      <point x="156" y="200"/>
      <point x="124" y="223"/>
      <point x="124" y="302" type="curve" smooth="yes"/>
      <point x="124" y="398"/>
      <point x="153" y="481"/>
      <point x="153" y="497" type="curve" smooth="yes"/>
      <point x="153" y="519"/>
      <point x="133" y="530"/>
      <point x="115" y="530" type="curve" smooth="yes"/>
      <point x="94" y="530"/>
      <point x="75" y="516"/>
      <point x="69" y="490" type="curve" smooth="yes"/>
      <point x="58" y="444"/>
      <point x="40" y="349"/>
      <point x="40" y="295" type="curve" smooth="yes"/>
      <point x="40" y="211"/>
      <point x="69" y="120"/>
      <point x="199" y="120" type="curve" smooth="yes"/>
      <point x="241" y="120"/>
      <point x="293" y="139"/>
      <point x="329" y="166" type="curve"/>
      <point x="337" y="84"/>
      <point x="379" y="30"/>
      <point x="445" y="4" type="curve" smooth="yes"/>
      <point x="467" y="-5"/>
      <point x="494" y="-14"/>
    </contour>
    <contour>
      <point x="222" y="-85" type="curve" smooth="yes"/>
      <point x="256" y="-85"/>
      <point x="285" y="-65"/>
      <point x="285" y="-17" type="curve" smooth="yes"/>
      <point x="285" y="32"/>
      <point x="256" y="50"/>
      <point x="222" y="50" type="curve" smooth="yes"/>
      <point x="188" y="50"/>
      <point x="161" y="32"/>
      <point x="161" y="-17" type="curve" smooth="yes"/>
      <point x="161" y="-65"/>
      <point x="188" y="-85"/>
    </contour>
  </outline>
</glyph>
<glyph name="u11170" format="2">
  <advance width="485"/>
  <unicode hex="11170"/>
  <outline>
    <contour>
      <point x="261" y="63" type="curve" smooth="yes"/>
      <point x="275" y="63"/>
      <point x="286" y="65"/>
      <point x="305" y="75" type="curve" smooth="yes"/>
      <point x="332" y="89"/>
      <point x="445" y="149"/>
      <point x="445" y="264" type="curve" smooth="yes"/>
      <point x="445" y="352"/>
      <point x="397" y="387"/>
      <point x="331" y="387" type="curve" smooth="yes"/>
      <point x="262" y="387"/>
      <point x="220" y="346"/>
      <point x="176" y="346" type="curve" smooth="yes"/>
      <point x="139" y="346"/>
      <point x="124" y="369"/>
      <point x="124" y="407" type="curve" smooth="yes"/>
      <point x="124" y="452"/>
      <point x="174" y="535"/>
      <point x="304" y="581" type="curve" smooth="yes"/>
      <point x="326" y="589"/>
      <point x="343" y="604"/>
      <point x="343" y="623" type="curve" smooth="yes"/>
      <point x="343" y="638"/>
      <point x="333" y="655"/>
      <point x="307" y="655" type="curve" smooth="yes"/>
      <point x="296" y="655"/>
      <point x="282" y="651"/>
      <point x="263" y="644" type="curve" smooth="yes"/>
      <point x="128" y="591"/>
      <point x="40" y="494"/>
      <point x="40" y="394" type="curve" smooth="yes"/>
      <point x="40" y="333"/>
      <point x="86" y="266"/>
      <point x="171" y="266" type="curve" smooth="yes"/>
      <point x="255" y="266"/>
      <point x="273" y="307"/>
      <point x="321" y="307" type="curve" smooth="yes"/>
      <point x="347" y="307"/>
      <point x="360" y="290"/>
      <point x="360" y="263" type="curve" smooth="yes"/>
      <point x="360" y="192"/>
      <point x="291" y="152"/>
      <point x="268" y="141" type="curve" smooth="yes"/>
      <point x="230" y="123"/>
      <point x="221" y="107"/>
      <point x="221" y="91" type="curve" smooth="yes"/>
      <point x="221" y="75"/>
      <point x="237" y="63"/>
    </contour>
  </outline>
</glyph>
<glyph name="u11171" format="2">
  <advance width="501"/>
  <unicode hex="11171"/>
  <outline>
    <contour>
      <point x="173" y="171" type="curve" smooth="yes"/>
      <point x="180" y="171"/>
      <point x="188" y="173"/>
      <point x="197" y="176" type="curve" smooth="yes"/>
      <point x="279" y="207"/>
      <point x="365" y="263"/>
      <point x="441" y="331" type="curve" smooth="yes"/>
      <point x="448" y="338"/>
      <point x="461" y="356"/>
      <point x="461" y="371" type="curve" smooth="yes"/>
      <point x="461" y="394"/>
      <point x="441" y="414"/>
      <point x="423" y="414" type="curve" smooth="yes"/>
      <point x="411" y="414"/>
      <point x="399" y="405"/>
      <point x="393" y="400" type="curve" smooth="yes"/>
      <point x="308" y="327"/>
      <point x="233" y="286"/>
      <point x="149" y="245" type="curve" smooth="yes"/>
      <point x="135" y="238"/>
      <point x="131" y="223"/>
      <point x="131" y="211" type="curve" smooth="yes"/>
      <point x="131" y="190"/>
      <point x="147" y="171"/>
    </contour>
    <contour>
      <point x="82" y="337" type="curve" smooth="yes"/>
      <point x="89" y="337"/>
      <point x="97" y="339"/>
      <point x="106" y="342" type="curve" smooth="yes"/>
      <point x="189" y="372"/>
      <point x="279" y="434"/>
      <point x="350" y="497" type="curve" smooth="yes"/>
      <point x="357" y="504"/>
      <point x="370" y="522"/>
      <point x="370" y="537" type="curve" smooth="yes"/>
      <point x="370" y="560"/>
      <point x="350" y="580"/>
      <point x="332" y="580" type="curve" smooth="yes"/>
      <point x="320" y="580"/>
      <point x="308" y="571"/>
      <point x="302" y="566" type="curve" smooth="yes"/>
      <point x="216" y="492"/>
      <point x="142" y="452"/>
      <point x="58" y="411" type="curve" smooth="yes"/>
      <point x="44" y="404"/>
      <point x="40" y="389"/>
      <point x="40" y="377" type="curve" smooth="yes"/>
      <point x="40" y="356"/>
      <point x="56" y="337"/>
    </contour>
  </outline>
</glyph>
<glyph name="u11172" format="2">
  <advance width="651"/>
  <unicode hex="11172"/>
  <outline>
    <contour>
      <point x="447" y="154" type="curve" smooth="yes"/>
      <point x="536" y="154"/>
      <point x="611" y="220"/>
      <point x="611" y="304" type="curve" smooth="yes"/>
      <point x="611" y="388"/>
      <point x="536" y="454"/>
      <point x="447" y="454" type="curve" smooth="yes"/>
      <point x="359" y="454"/>
      <point x="284" y="388"/>
      <point x="284" y="304" type="curve" smooth="yes"/>
      <point x="284" y="220"/>
      <point x="359" y="154"/>
    </contour>
    <contour>
      <point x="447" y="228" type="curve" smooth="yes"/>
      <point x="400" y="228"/>
      <point x="364" y="261"/>
      <point x="364" y="304" type="curve" smooth="yes"/>
      <point x="364" y="347"/>
      <point x="400" y="380"/>
      <point x="447" y="380" type="curve" smooth="yes"/>
      <point x="494" y="380"/>
      <point x="531" y="347"/>
      <point x="531" y="304" type="curve" smooth="yes"/>
      <point x="531" y="261"/>
      <point x="494" y="228"/>
    </contour>
    <component base="u11160"/>
  </outline>
</glyph>
<glyph name="u11173" format="2">
  <unicode hex="11173"/>
  <outline>
    <contour>
      <point x="-63" y="-165" type="curve" smooth="yes"/>
      <point x="-29" y="-165"/>
      <point x="0" y="-145"/>
      <point x="0" y="-97" type="curve" smooth="yes"/>
      <point x="0" y="-48"/>
      <point x="-29" y="-30"/>
      <point x="-63" y="-30" type="curve" smooth="yes"/>
      <point x="-97" y="-30"/>
      <point x="-124" y="-48"/>
      <point x="-124" y="-97" type="curve" smooth="yes"/>
      <point x="-124" y="-145"/>
      <point x="-97" y="-165"/>
    </contour>
  </outline>
</glyph>
<glyph name="u11174" format="2">
  <advance width="204"/>
  <unicode hex="11174"/>
  <outline>
    <contour>
      <point x="101" y="180" type="curve" smooth="yes"/>
      <point x="135" y="180"/>
      <point x="164" y="200"/>
      <point x="164" y="248" type="curve" smooth="yes"/>
      <point x="164" y="297"/>
      <point x="135" y="315"/>
      <point x="101" y="315" type="curve" smooth="yes"/>
      <point x="67" y="315"/>
      <point x="40" y="297"/>
      <point x="40" y="248" type="curve" smooth="yes"/>
      <point x="40" y="200"/>
      <point x="67" y="180"/>
    </contour>
  </outline>
</glyph>
<glyph name="u11175" format="2">
  <advance width="403"/>
  <unicode hex="11175"/>
  <outline>
    <contour>
      <point x="175" y="-12" type="curve" smooth="yes"/>
      <point x="216" y="-12"/>
      <point x="255" y="17"/>
      <point x="301" y="55" type="curve" smooth="yes"/>
      <point x="317" y="69"/>
      <point x="335" y="84"/>
      <point x="353" y="99" type="curve" smooth="yes"/>
      <point x="363" y="108"/>
      <point x="373" y="128"/>
      <point x="373" y="139" type="curve" smooth="yes"/>
      <point x="373" y="162"/>
      <point x="353" y="182"/>
      <point x="335" y="182" type="curve" smooth="yes"/>
      <point x="325" y="182"/>
      <point x="311" y="173"/>
      <point x="305" y="168" type="curve" smooth="yes"/>
      <point x="260" y="128"/>
      <point x="216" y="89"/>
      <point x="200" y="89" type="curve" smooth="yes"/>
      <point x="189" y="89"/>
      <point x="184" y="108"/>
      <point x="178" y="156" type="curve" smooth="yes"/>
      <point x="162" y="277"/>
      <point x="154" y="383"/>
      <point x="154" y="485" type="curve" smooth="yes"/>
      <point x="154" y="528"/>
      <point x="154" y="559"/>
      <point x="151" y="575" type="curve" smooth="yes"/>
      <point x="148" y="592"/>
      <point x="135" y="600"/>
      <point x="116" y="600" type="curve" smooth="yes"/>
      <point x="101" y="600"/>
      <point x="86" y="592"/>
      <point x="80" y="579" type="curve" smooth="yes"/>
      <point x="70" y="558"/>
      <point x="70" y="526"/>
      <point x="70" y="484" type="curve" smooth="yes"/>
      <point x="70" y="333"/>
      <point x="89" y="169"/>
      <point x="111" y="47" type="curve" smooth="yes"/>
      <point x="115" y="24"/>
      <point x="136" y="-12"/>
    </contour>
  </outline>
</glyph>
<glyph name="u11176" format="2">
  <advance width="1080"/>
  <unicode hex="11176"/>
  <outline>
    <contour>
      <point x="627" y="-12" type="curve" smooth="yes"/>
      <point x="858" y="-12"/>
      <point x="1040" y="171"/>
      <point x="1040" y="376" type="curve" smooth="yes"/>
      <point x="1040" y="455"/>
      <point x="999" y="530"/>
      <point x="890" y="530" type="curve" smooth="yes"/>
      <point x="843" y="530"/>
      <point x="800" y="514"/>
      <point x="766" y="481" type="curve"/>
      <point x="748" y="509"/>
      <point x="716" y="530"/>
      <point x="665" y="530" type="curve" smooth="yes"/>
      <point x="618" y="530"/>
      <point x="579" y="514"/>
      <point x="548" y="482" type="curve"/>
      <point x="529" y="509"/>
      <point x="497" y="530"/>
      <point x="447" y="530" type="curve" smooth="yes"/>
      <point x="389" y="530"/>
      <point x="352" y="504"/>
      <point x="323" y="468" type="curve"/>
      <point x="302" y="505"/>
      <point x="263" y="530"/>
      <point x="212" y="530" type="curve" smooth="yes"/>
      <point x="142" y="530"/>
      <point x="88" y="480"/>
      <point x="88" y="382" type="curve" smooth="yes"/>
      <point x="88" y="326"/>
      <point x="112" y="264"/>
      <point x="162" y="225" type="curve"/>
      <point x="135" y="195"/>
      <point x="105" y="167"/>
      <point x="76" y="144" type="curve" smooth="yes"/>
      <point x="49" y="122"/>
      <point x="40" y="105"/>
      <point x="40" y="91" type="curve" smooth="yes"/>
      <point x="40" y="73"/>
      <point x="57" y="62"/>
      <point x="71" y="62" type="curve" smooth="yes"/>
      <point x="98" y="62"/>
      <point x="129" y="89"/>
      <point x="150" y="108" type="curve" smooth="yes"/>
      <point x="213" y="164"/>
      <point x="255" y="210"/>
      <point x="297" y="270" type="curve" smooth="yes"/>
      <point x="357" y="356"/>
      <point x="378" y="450"/>
      <point x="437" y="450" type="curve" smooth="yes"/>
      <point x="472" y="450"/>
      <point x="491" y="422"/>
      <point x="491" y="394" type="curve" smooth="yes"/>
      <point x="491" y="390"/>
      <point x="491" y="388"/>
      <point x="490" y="382" type="curve"/>
      <point x="486" y="369"/>
      <point x="484" y="356"/>
      <point x="484" y="346" type="curve" smooth="yes"/>
      <point x="484" y="327"/>
      <point x="500" y="313"/>
      <point x="521" y="313" type="curve" smooth="yes"/>
      <point x="537" y="313"/>
      <point x="551" y="321"/>
      <point x="559" y="342" type="curve" smooth="yes"/>
      <point x="588" y="421"/>
      <point x="622" y="450"/>
      <point x="655" y="450" type="curve" smooth="yes"/>
      <point x="690" y="450"/>
      <point x="709" y="422"/>
      <point x="709" y="394" type="curve" smooth="yes"/>
      <point x="709" y="392"/>
      <point x="709" y="390"/>
      <point x="708" y="386" type="curve" smooth="yes"/>
      <point x="705" y="371" type="line" smooth="yes"/>
      <point x="704" y="366"/>
      <point x="703" y="353"/>
      <point x="703" y="346" type="curve" smooth="yes"/>
      <point x="703" y="327"/>
      <point x="719" y="313"/>
      <point x="740" y="313" type="curve" smooth="yes"/>
      <point x="756" y="313"/>
      <point x="770" y="321"/>
      <point x="778" y="342" type="curve" smooth="yes"/>
      <point x="807" y="421"/>
      <point x="847" y="450"/>
      <point x="886" y="450" type="curve" smooth="yes"/>
      <point x="934" y="450"/>
      <point x="956" y="414"/>
      <point x="956" y="378" type="curve" smooth="yes"/>
      <point x="956" y="210"/>
      <point x="799" y="68"/>
      <point x="623" y="68" type="curve" smooth="yes"/>
      <point x="557" y="68"/>
      <point x="509" y="89"/>
      <point x="473" y="120" type="curve" smooth="yes"/>
      <point x="465" y="127"/>
      <point x="457" y="129"/>
      <point x="449" y="129" type="curve" smooth="yes"/>
      <point x="429" y="129"/>
      <point x="412" y="110"/>
      <point x="412" y="89" type="curve" smooth="yes"/>
      <point x="412" y="79"/>
      <point x="416" y="69"/>
      <point x="426" y="59" type="curve" smooth="yes"/>
      <point x="473" y="15"/>
      <point x="538" y="-12"/>
    </contour>
    <contour>
      <point x="216" y="289" type="line"/>
      <point x="191" y="309"/>
      <point x="172" y="341"/>
      <point x="172" y="383" type="curve" smooth="yes"/>
      <point x="172" y="424"/>
      <point x="190" y="450"/>
      <point x="216" y="450" type="curve" smooth="yes"/>
      <point x="246" y="450"/>
      <point x="258" y="421"/>
      <point x="258" y="390" type="curve" smooth="yes"/>
      <point x="258" y="367"/>
      <point x="251" y="342"/>
      <point x="240" y="325" type="curve" smooth="yes"/>
    </contour>
  </outline>
</glyph>
